<svg width="67" height="57" viewBox="0 0 67 57" fill="none" xmlns="http://www.w3.org/2000/svg">
<path d="M66.5671 56.1715V17.9491C66.5671 17.7553 66.4901 17.5694 66.353 17.4323C66.216 17.2953 66.0301 17.2183 65.8363 17.2183H1.23083C1.037 17.2183 0.851112 17.2953 0.714055 17.4323C0.576998 17.5694 0.5 17.7553 0.5 17.9491V56.1715C0.5 56.3654 0.576998 56.5513 0.714055 56.6883C0.851112 56.8254 1.037 56.9024 1.23083 56.9024H65.8363C66.0301 56.9024 66.216 56.8254 66.353 56.6883C66.4901 56.5513 66.5671 56.3654 66.5671 56.1715ZM65.1054 29.6424H63.1322C61.9229 29.6424 60.7255 29.4042 59.6082 28.9414C58.491 28.4787 57.4759 27.8004 56.6208 26.9453C55.7657 26.0902 55.0874 25.0751 54.6247 23.9578C54.1619 22.8406 53.9237 21.6432 53.9237 20.4339V18.6799H65.1054V29.6424ZM52.4621 55.4407H14.605V53.6867C14.605 50.8568 13.4809 48.1428 11.4798 46.1418C9.47879 44.1408 6.7648 43.0166 3.9349 43.0166H1.96166V31.031H3.9349C6.75218 31.031 9.45515 29.9169 11.4541 27.9316C13.453 25.9464 14.5857 23.2511 14.605 20.4339V18.6799H52.4621V20.4339C52.4813 23.2511 53.614 25.9464 55.613 27.9316C57.6119 29.9169 60.3149 31.031 63.1322 31.031H65.1054V43.0166H63.1322C60.3023 43.0166 57.5883 44.1408 55.5873 46.1418C53.5862 48.1428 52.4621 50.8568 52.4621 53.6867V55.4407ZM13.1434 18.6799V20.4339C13.1241 22.8635 12.1454 25.1869 10.4206 26.8981C8.69573 28.6092 6.36453 29.5694 3.9349 29.5693H1.96166V18.6068L13.1434 18.6799ZM1.96166 44.4782H3.9349C6.37714 44.4782 8.71935 45.4484 10.4463 47.1753C12.1732 48.9023 13.1434 51.2445 13.1434 53.6867V55.4407H1.96166V44.4782ZM53.9237 55.4407V53.6867C53.9237 51.2445 54.8939 48.9023 56.6208 47.1753C58.3477 45.4484 60.6899 44.4782 63.1322 44.4782H65.1054V55.4407H53.9237Z" fill="#C49F75"/>
<path d="M33.5336 24.2344C31.004 24.2344 28.5313 24.9845 26.4281 26.3898C24.3248 27.7951 22.6856 29.7926 21.7176 32.1296C20.7496 34.4665 20.4963 37.0381 20.9898 39.519C21.4833 42 22.7013 44.2788 24.49 46.0675C26.2786 47.8561 28.5575 49.0742 31.0384 49.5677C33.5194 50.0612 36.0909 49.8079 38.4279 48.8399C40.7649 47.8719 42.7623 46.2326 44.1677 44.1294C45.573 42.0262 46.3231 39.5534 46.3231 37.0239C46.3231 33.6319 44.9756 30.3788 42.5771 27.9803C40.1786 25.5818 36.9256 24.2344 33.5336 24.2344ZM33.5336 48.3518C31.2931 48.3518 29.103 47.6874 27.2401 46.4427C25.3773 45.198 23.9253 43.4288 23.068 41.3589C22.2106 39.289 21.9863 37.0113 22.4233 34.814C22.8604 32.6166 23.9393 30.5981 25.5235 29.0139C27.1078 27.4297 29.1262 26.3508 31.3236 25.9137C33.521 25.4766 35.7987 25.7009 37.8685 26.5583C39.9384 27.4157 41.7076 28.8676 42.9523 30.7305C44.1971 32.5933 44.8614 34.7835 44.8614 37.0239C44.8614 40.0282 43.668 42.9095 41.5436 45.0339C39.4192 47.1583 36.5379 48.3518 33.5336 48.3518Z" fill="#C49F75"/>
<path d="M59.9896 8.66748H7.07751V10.1291H59.9896V8.66748Z" fill="#C49F75"/>
<path d="M52.6813 0.0437012H14.3858V1.50536H52.6813V0.0437012Z" fill="#C49F75"/>
</svg>
