<svg width="95" height="82" viewBox="0 0 95 82" fill="none" xmlns="http://www.w3.org/2000/svg">
<path d="M59.9702 9.38149C56.9236 6.33496 52.8729 4.65747 48.5643 4.65747C44.2558 4.65747 40.205 6.33496 37.1585 9.38149C34.112 12.428 32.4345 16.4788 32.4345 20.7873C32.4345 25.0958 34.112 29.1452 37.1585 32.1917C40.205 35.2382 44.2558 36.9157 48.5643 36.9157C52.8729 36.9157 56.9236 35.2397 59.9702 32.1917C63.0167 29.1438 64.6942 25.0944 64.6942 20.7859C64.6942 16.4788 63.0167 12.428 59.9702 9.38149ZM58.9744 31.1959C56.194 33.9763 52.4968 35.5073 48.5643 35.5073C44.6319 35.5073 40.9346 33.9763 38.1543 31.1959C35.374 28.4156 33.843 24.7184 33.843 20.7873C33.843 16.8549 35.374 13.1576 38.1543 10.3773C40.9346 7.59695 44.6319 6.06454 48.5643 6.06454C52.4968 6.06454 56.194 7.59555 58.9744 10.3773C61.7547 13.1576 63.2857 16.8548 63.2871 20.7859C63.2871 24.7184 61.7561 28.4156 58.9744 31.1959Z" fill="#C49F75"/>
<path d="M93.9566 57.5714L90.8847 54.4995C90.8833 54.4981 90.8833 54.4967 90.8819 54.4952C90.8805 54.4938 90.8791 54.4938 90.8777 54.4924L71.7027 35.3161C71.4379 35.0513 70.9703 35.0513 70.7069 35.3161L69.3013 36.7217L65.4519 32.8724C71.2619 24.7553 70.5478 13.3735 63.2646 6.08883C59.3378 2.16201 54.118 0 48.5643 0C43.0107 0 37.7909 2.16201 33.8655 6.08883C25.7612 14.1932 25.7612 27.3821 33.8655 35.4879C37.7909 39.4133 43.0121 41.5753 48.5643 41.5753C52.9658 41.5753 57.1476 40.1964 60.6533 37.6781L64.4998 41.5232L63.0942 42.9289C62.8195 43.2035 62.8195 43.65 63.0942 43.9246L85.348 66.1785C85.4861 66.3166 85.6663 66.3842 85.8466 66.3842C86.0269 66.3842 86.2072 66.3152 86.3452 66.1785L93.958 58.5671C94.0904 58.4347 94.1637 58.2559 94.1637 58.0685C94.1637 57.8812 94.089 57.7023 93.9566 57.5714ZM34.8613 34.4907C27.3063 26.9342 27.3063 14.6397 34.8613 7.08462C38.5219 3.424 43.3882 1.40847 48.5643 1.40847C53.7405 1.40847 58.6068 3.424 62.2674 7.08462C69.821 14.6397 69.821 26.9356 62.2674 34.4907C58.6068 38.1513 53.7405 40.1654 48.5643 40.1654C43.3882 40.1654 38.5219 38.1513 34.8613 34.4907ZM61.7913 36.8231C62.2984 36.402 62.7927 35.9583 63.2646 35.4865C63.7392 35.0118 64.1787 34.5175 64.5984 34.0104L68.3055 37.7175L65.4956 40.5274L61.7913 36.8231ZM71.2055 36.809L89.3889 54.9924L82.7719 61.6094L64.5885 43.426L71.2055 36.809ZM85.8452 64.6841L83.7663 62.6052L90.3833 55.9882L92.4622 58.0685L85.8452 64.6841Z" fill="#C49F75"/>
<path d="M37.6524 65.7849C40.1866 59.0756 36.8572 51.6032 30.2161 49.0947C23.5749 46.5863 16.1369 49.9918 13.6027 56.7011C11.0685 63.4104 14.3979 70.8828 21.039 73.3913C27.6801 75.8997 35.1182 72.4942 37.6524 65.7849Z" stroke="#C49F75" stroke-width="1.36268" stroke-linecap="round" stroke-linejoin="round"/>
<path d="M12.6888 61.9023L5.06715 59.0236C3.86163 58.5682 3.26146 57.2212 3.72148 56.0033L5.72733 50.6927C6.18735 49.4748 7.52819 48.8609 8.73371 49.3162L16.2599 52.159" stroke="#C49F75" stroke-width="1.36268" stroke-linecap="round" stroke-linejoin="round"/>
<path d="M12.7657 63.7291L10.1805 62.7527L10.7381 61.2765M14.4868 51.3518L15.0358 49.8983L17.621 50.8748L14.4868 51.3518Z" stroke="#C49F75" stroke-width="1.36268" stroke-linecap="round" stroke-linejoin="round"/>
<path d="M35.0818 70.3604L42.7035 73.2391C43.909 73.6945 45.2498 73.0805 45.7098 71.8626L47.7156 66.5521C48.1757 65.3342 47.5755 63.9871 46.37 63.5318L38.8437 60.689" stroke="#C49F75" stroke-width="1.36268" stroke-linecap="round" stroke-linejoin="round"/>
<path d="M33.8162 71.6807L36.4015 72.6571L36.9591 71.1809M40.7077 61.2562L41.2567 59.8028L38.6715 58.8263L40.7077 61.2562Z" stroke="#C49F75" stroke-width="1.36268" stroke-linecap="round" stroke-linejoin="round"/>
<path d="M28.867 48.4346L29.2795 47.3425C29.5752 46.5596 30.4371 46.165 31.2121 46.4577C31.9871 46.7504 32.3729 47.6164 32.0772 48.3993L31.6647 49.4913" stroke="#C49F75" stroke-width="1.36268" stroke-linecap="round" stroke-linejoin="round"/>
<path d="M33.7721 64.3196C35.4886 59.7753 33.2335 54.7141 28.7354 53.0151C24.2372 51.3161 19.1993 53.6227 17.4829 58.167C15.7664 62.7114 18.0214 67.7726 22.5196 69.4716C27.0177 71.1706 32.0557 68.864 33.7721 64.3196Z" stroke="#C49F75" stroke-width="1.36268" stroke-linecap="round" stroke-linejoin="round"/>
<path d="M18.7041 58.6284L17.7165 58.2554" stroke="#C49F75" stroke-width="1.36268" stroke-linecap="round" stroke-linejoin="round"/>
<path d="M33.4246 64.1885L32.437 63.8154" stroke="#C49F75" stroke-width="1.36268" stroke-linecap="round" stroke-linejoin="round"/>
<path d="M28.1906 54.2849L28.5675 53.2871" stroke="#C49F75" stroke-width="1.36268" stroke-linecap="round" stroke-linejoin="round"/>
<path d="M22.5735 69.1562L22.9504 68.1585" stroke="#C49F75" stroke-width="1.36268" stroke-linecap="round" stroke-linejoin="round"/>
<path d="M22.6173 54.4606L22.1925 53.488" stroke="#C49F75" stroke-width="1.36268" stroke-linecap="round" stroke-linejoin="round"/>
<path d="M28.9485 68.9559L28.5237 67.9834" stroke="#C49F75" stroke-width="1.36268" stroke-linecap="round" stroke-linejoin="round"/>
<path d="M18.8405 64.2431L17.8725 64.6777" stroke="#C49F75" stroke-width="1.36268" stroke-linecap="round" stroke-linejoin="round"/>
<path d="M33.2685 57.7656L32.3005 58.2002" stroke="#C49F75" stroke-width="1.36268" stroke-linecap="round" stroke-linejoin="round"/>
<path d="M14.449 55.0593L16.0673 55.6706L14.7704 59.1042L13.1521 58.4929" stroke="#C49F75" stroke-width="1.36268" stroke-linecap="round" stroke-linejoin="round"/>
<path d="M19.4443 72.4724L20.0618 70.8375L23.4605 72.1212L22.843 73.7561" stroke="#C49F75" stroke-width="1.36268" stroke-linecap="round" stroke-linejoin="round"/>
<path d="M38.0508 63.9741L36.4325 63.3628L35.1356 66.7964L36.7539 67.4076" stroke="#C49F75" stroke-width="1.36268" stroke-linecap="round" stroke-linejoin="round"/>
<path d="M25.5468 61.2288L23.4899 56.5939" stroke="#C49F75" stroke-width="1.36268" stroke-linecap="round" stroke-linejoin="round"/>
<path d="M22.122 65.0955L25.5012 61.2892" stroke="#C49F75" stroke-width="1.36268" stroke-linecap="round" stroke-linejoin="round"/>
</svg>
