<svg width="73" height="58" viewBox="0 0 73 58" fill="none" xmlns="http://www.w3.org/2000/svg">
<path d="M31.599 0.476318C29.2838 0.476318 27.2755 1.63915 25.6489 3.46405C24.0222 5.28894 22.7291 7.78091 21.699 10.6295C19.975 15.397 19.0119 21.1814 18.7366 26.5556C13.392 27.1437 8.88227 27.9756 5.6463 29.0116C3.9911 29.5415 2.64511 30.118 1.6711 30.784C0.697097 31.4501 0 32.2829 0 33.316C0 34.0741 0.412395 34.7245 0.987469 35.2656C1.56254 35.8067 2.3136 36.2752 3.26624 36.7088C5.17154 37.576 7.82677 38.334 11.09 38.9623C17.6166 40.2187 26.5737 40.9879 36.4604 40.9879C46.3471 40.9879 55.3042 40.2187 61.8307 38.9623C65.094 38.334 67.7492 37.576 69.6545 36.7088C70.6072 36.2752 71.3582 35.8067 71.9333 35.2656C72.5084 34.7245 72.9208 34.0741 72.9208 33.316C72.9208 32.2829 72.2237 31.4501 71.2497 30.784C70.2757 30.118 68.9297 29.5415 67.2745 29.0116C64.0385 27.9756 59.5288 27.1437 54.1842 26.5556C53.9089 21.1814 52.9458 15.397 51.2218 10.6295C50.1917 7.78091 48.8986 5.28894 47.2719 3.46405C45.6453 1.63915 43.637 0.476318 41.3218 0.476318C40.3236 0.476318 39.4284 0.858148 38.5872 1.23591C37.7461 1.61367 36.9607 1.99012 36.3338 2.09678C36.2458 2.10807 36.1603 2.13373 36.0806 2.17274C36.0734 2.1695 36.0625 2.17598 36.0553 2.17274C35.2168 1.77073 34.3938 1.35138 33.6499 1.03335C32.906 0.715361 32.2807 0.476318 31.599 0.476318ZM31.599 2.09678C31.7634 2.09678 32.3394 2.23757 33.0169 2.52722C33.6944 2.81686 34.5202 3.20774 35.3716 3.61596C37.0745 4.4324 38.8698 5.3377 40.5115 5.3377C40.6189 5.33922 40.7255 5.31939 40.8251 5.27935C40.9248 5.23931 41.0155 5.17987 41.0919 5.10449C41.1684 5.0291 41.2291 4.93927 41.2705 4.84021C41.312 4.74115 41.3333 4.63485 41.3333 4.52747C41.3333 4.4201 41.312 4.31379 41.2705 4.21474C41.2291 4.11568 41.1684 4.02585 41.0919 3.95046C41.0155 3.87507 40.9248 3.81563 40.8251 3.7756C40.7255 3.73556 40.6189 3.71572 40.5115 3.71724C39.9609 3.71724 39.1428 3.43547 38.2328 3.08425C38.561 2.94292 38.9374 2.86815 39.2456 2.72977C40.0575 2.36514 40.8045 2.09678 41.3218 2.09678C43.1028 2.09678 44.6617 2.9342 46.0819 4.52747C47.5021 6.12074 48.7184 8.43951 49.7026 11.1612C50.8551 14.3483 51.6528 18.0927 52.1333 21.8462C49.4683 23.2401 44.6206 24.7832 36.4604 24.7832C28.3002 24.7832 23.4525 23.2401 20.7875 21.8462C21.268 18.0927 22.0657 14.3483 23.2182 11.1612C24.2024 8.43951 25.4187 6.12074 26.8389 4.52747C28.2591 2.9342 29.818 2.09678 31.599 2.09678ZM20.5849 23.5679C23.6146 25.0126 28.6193 26.4037 36.4604 26.4037C44.3015 26.4037 49.3062 25.0126 52.3359 23.5679C52.5452 25.647 52.665 27.6983 52.665 29.6446C52.665 29.609 52.6811 29.6446 52.5384 29.7966C52.3957 29.9454 52.1181 30.1449 51.7282 30.3536C50.9483 30.7711 49.7196 31.2181 48.2087 31.5943C45.1871 32.3466 40.9918 32.8856 36.4604 32.8856C31.929 32.8856 27.7337 32.3466 24.712 31.5943C23.2012 31.2181 21.9725 30.7711 21.1926 30.3536C20.8027 30.1449 20.5251 29.9454 20.3824 29.7966C20.2397 29.6477 20.2558 29.6087 20.2558 29.6446C20.2558 27.6983 20.3756 25.647 20.5849 23.5679ZM18.6606 28.1761C18.6484 28.6675 18.6353 29.1641 18.6353 29.6446C18.6353 30.1599 18.8965 30.5757 19.2177 30.9106C19.5389 31.2456 19.9456 31.5359 20.433 31.7968C21.4078 32.3187 22.7126 32.7671 24.3069 33.1641C27.4957 33.9579 31.8036 34.506 36.4604 34.506C41.1172 34.506 45.4251 33.9579 48.6139 33.1641C50.2082 32.7671 51.513 32.3187 52.4878 31.7968C52.9752 31.5359 53.3819 31.2456 53.7031 30.9106C54.0243 30.5757 54.2855 30.1599 54.2855 29.6446C54.2855 29.1641 54.2724 28.6675 54.2602 28.1761C59.4292 28.7569 63.7779 29.5907 66.7934 30.5561C68.3596 31.0576 69.5548 31.5823 70.3129 32.1006C71.0709 32.619 71.3003 33.0584 71.3003 33.316C71.3003 33.5055 71.194 33.7484 70.8192 34.1009C70.4445 34.4534 69.8223 34.8528 68.9709 35.2403C67.2682 36.0154 64.715 36.7534 61.5269 37.3671C55.1506 38.5947 46.2628 39.3674 36.4604 39.3674C26.658 39.3674 17.7702 38.5947 11.3939 37.3671C8.20573 36.7534 5.65258 36.0154 3.94988 35.2403C3.09853 34.8528 2.47625 34.4534 2.10154 34.1009C1.72683 33.7484 1.62046 33.5055 1.62046 33.316C1.62046 33.0584 1.84988 32.619 2.60793 32.1006C3.36598 31.5823 4.56115 31.0576 6.12737 30.5561C9.14285 29.5907 13.4916 28.7569 18.6606 28.1761ZM16.0527 43.4186C15.928 43.4405 15.8102 43.4913 15.7087 43.567C15.6072 43.6426 15.5248 43.741 15.4682 43.8543C15.4116 43.9675 15.3823 44.0924 15.3827 44.219C15.383 44.3456 15.4131 44.4704 15.4703 44.5833C17.195 48.048 19.8496 51.1676 22.7371 53.4452C25.6247 55.7227 28.7509 57.1925 31.599 57.1925C31.7081 57.1917 31.8159 57.1688 31.916 57.1253C32.0161 57.0818 32.1063 57.0185 32.1814 56.9393L36.4604 52.6603L40.7394 56.9393C40.8144 57.0185 40.9047 57.0818 41.0048 57.1253C41.1048 57.1688 41.2127 57.1917 41.3218 57.1925C44.1699 57.1925 47.2961 55.7227 50.1837 53.4452C53.0712 51.1676 55.7258 48.048 57.4504 44.5833C57.5234 44.445 57.5548 44.2886 57.5409 44.1329C57.5269 43.9772 57.4683 43.8288 57.3719 43.7057C57.2756 43.5826 57.1457 43.49 56.9979 43.439C56.8501 43.3881 56.6907 43.381 56.5389 43.4186C50.0168 44.9048 43.153 45.0568 36.4604 45.039C29.7678 45.0568 22.904 44.9048 16.3819 43.4186C16.2733 43.396 16.1613 43.396 16.0527 43.4186ZM17.9264 45.3429C24.0758 46.507 30.3702 46.6757 36.4604 46.6595C42.5505 46.6757 48.845 46.507 54.9944 45.3429C53.4238 47.9519 51.4527 50.3741 49.1962 52.1539C46.5985 54.2029 43.8307 55.4059 41.6003 55.4961L37.0427 50.9385C36.9672 50.8604 36.8767 50.7983 36.7766 50.7559C36.6766 50.7135 36.5691 50.6917 36.4604 50.6917C36.3517 50.6917 36.2442 50.7135 36.1441 50.7559C36.0441 50.7983 35.9536 50.8604 35.878 50.9385L31.3205 55.4961C29.0901 55.4059 26.3223 54.2029 23.7246 52.1539C21.4681 50.3741 19.497 47.9519 17.9264 45.3429Z" fill="#C49F75"/>
</svg>
