<svg width="70" height="74" viewBox="0 0 70 74" fill="none" xmlns="http://www.w3.org/2000/svg">
<path d="M69.253 38.7179H69.1261C68.7132 38.7179 68.379 38.3838 68.379 37.9709C68.379 35.2819 66.192 33.0949 63.503 33.0949C60.8141 33.0949 58.627 35.2819 58.627 37.9709C58.627 38.3838 58.2929 38.7179 57.88 38.7179C57.4671 38.7179 57.133 38.3838 57.133 37.9709C57.133 35.2819 54.9394 33.0949 52.2431 33.0949C49.5549 33.0949 47.3678 35.2819 47.3678 37.9709C47.3678 38.3838 47.0337 38.7179 46.6208 38.7179C46.2079 38.7179 45.8738 38.3838 45.8738 37.9709C45.8738 35.2819 43.6867 33.0949 40.9978 33.0949C38.3088 33.0949 36.1217 35.2819 36.1217 37.9709C36.1217 38.3838 35.7876 38.7179 35.3747 38.7179C34.9618 38.7179 34.6277 38.3838 34.6277 37.9709C34.6277 35.2819 32.4341 33.0949 29.7378 33.0949C27.0489 33.0949 24.8618 35.2819 24.8618 37.9709C24.8618 38.3838 24.5277 38.7179 24.1148 38.7179C23.7019 38.7179 23.3678 38.3838 23.3678 37.9709C23.3678 35.2819 21.1807 33.0949 18.4918 33.0949C15.8028 33.0949 13.6158 35.2819 13.6158 37.9709C13.6158 38.3838 13.2817 38.7179 12.8688 38.7179C12.4559 38.7179 12.1217 38.3838 12.1217 37.9709C12.1217 35.2819 9.93468 33.0949 7.24572 33.0949C4.54947 33.0949 2.35584 35.2819 2.35584 37.9709C2.35584 38.3838 2.02173 38.7179 1.60883 38.7179C1.19593 38.7179 0.861816 38.3838 0.861816 37.9709C0.861817 19.2357 16.3697 3.99414 35.4309 3.99414C54.4922 3.99414 70 19.2357 70 37.9709C70 38.3838 69.6659 38.7179 69.253 38.7179ZM69.253 37.9709H69.2676H69.253ZM29.7378 31.6008C32.1759 31.6008 34.2987 32.9716 35.374 34.9814C36.4464 32.9716 38.5649 31.6008 40.9978 31.6008C43.4299 31.6008 45.5477 32.9708 46.6208 34.9792C47.6939 32.9708 49.8117 31.6008 52.2431 31.6008C54.6811 31.6008 56.804 32.9716 57.8793 34.9814C58.9516 32.9716 61.0701 31.6008 63.503 31.6008C65.3713 31.6008 67.0543 32.4091 68.2207 33.6945C66.0818 17.7978 52.1928 5.48817 35.4309 5.48817C18.723 5.48817 4.86826 17.7176 2.66224 33.5413C3.82361 32.3449 5.44895 31.6008 7.24572 31.6008C9.67789 31.6008 11.7956 32.9708 12.8688 34.9799C13.9419 32.9708 16.0596 31.6008 18.4918 31.6008C20.924 31.6008 23.0417 32.9708 24.1148 34.9799C25.1879 32.9708 27.3057 31.6008 29.7378 31.6008Z" fill="#C49F75"/>
<path d="M29.2214 73.2075C25.4163 73.2075 22.321 70.1122 22.321 66.3078C22.321 65.8949 22.6551 65.5608 23.068 65.5608C23.4809 65.5608 23.815 65.8949 23.815 66.3078C23.815 69.2886 26.2406 71.7135 29.2214 71.7135C32.2021 71.7135 34.6277 69.2886 34.6277 66.3078V37.9709C34.6277 37.558 34.9619 37.2239 35.3748 37.2239C35.7877 37.2239 36.1218 37.558 36.1218 37.9709V66.3078C36.1218 70.1122 33.0265 73.2075 29.2214 73.2075Z" fill="#C49F75"/>
<path d="M35.4309 5.48807C35.018 5.48807 34.6839 5.15396 34.6839 4.74106V0.747014C34.6839 0.334114 35.018 0 35.4309 0C35.8438 0 36.1779 0.334114 36.1779 0.747014V4.74106C36.1779 5.15396 35.8438 5.48807 35.4309 5.48807Z" fill="#C49F75"/>
</svg>
