<svg width="28" height="23" viewBox="0 0 28 23" fill="none" xmlns="http://www.w3.org/2000/svg">
<path d="M27.8464 21.4167L14.9234 0.507568C14.729 0.192886 14.3784 0 13.9999 0C13.6214 0 13.2708 0.192886 13.0764 0.507568L0.153407 21.4167C-0.0463619 21.7397 -0.0512078 22.1422 0.139945 22.47C0.331099 22.7977 0.688636 23 1.07686 23H26.9229C27.3112 23 27.6692 22.7972 27.8598 22.4694C28.0515 22.1417 28.0462 21.7397 27.8464 21.4167ZM2.9787 20.9091L13.9999 3.0773L25.0211 20.9091H2.9787Z" fill="#C49F75"/>
<path d="M12.923 8.36357V13.5908C12.923 14.1679 13.4054 14.6363 13.9999 14.6363C14.5944 14.6363 15.0768 14.1679 15.0768 13.5908V8.36357C15.0768 7.78648 14.5944 7.31812 13.9999 7.31812C13.4054 7.31812 12.923 7.78648 12.923 8.36357Z" fill="#C49F75"/>
<path d="M13.9999 15.6819C13.4054 15.6819 12.923 16.1502 12.923 16.7273V17.7728C12.923 18.3499 13.4054 18.8182 13.9999 18.8182C14.5944 18.8182 15.0768 18.3499 15.0768 17.7728V16.7273C15.0768 16.1502 14.5944 15.6819 13.9999 15.6819Z" fill="#C49F75"/>
</svg>
