<svg width="220" height="37" viewBox="0 0 220 37" fill="none" xmlns="http://www.w3.org/2000/svg">
<path d="M31.4 12H38.2C39.2267 12 40.1133 12.0933 40.86 12.28C41.62 12.4533 42.2467 12.7067 42.74 13.04C43.2333 13.36 43.6 13.7467 43.84 14.2C44.08 14.6533 44.2 15.1533 44.2 15.7C44.2 16.4067 44 17.02 43.6 17.54C43.2 18.06 42.6 18.4467 41.8 18.7C42.8 18.9 43.58 19.2933 44.14 19.88C44.7133 20.4533 45 21.1933 45 22.1C45 23.3 44.5 24.2533 43.5 24.96C42.5133 25.6533 40.9467 26 38.8 26H31.4V12ZM34.3 19.6V24.5H38.8C39.8 24.5 40.5667 24.3 41.1 23.9C41.6333 23.5 41.9 22.9 41.9 22.1C41.9 21.2467 41.6333 20.62 41.1 20.22C40.5667 19.8067 39.8 19.6 38.8 19.6H34.3ZM38.2 18.1C40.1333 18.1 41.1 17.3 41.1 15.7C41.1 14.9933 40.8533 14.4533 40.36 14.08C39.88 13.6933 39.16 13.5 38.2 13.5H34.3V18.1H38.2ZM58.8961 26V14.6H58.6961L51.1961 26H47.3961V12H50.2961V23.4H50.4961L57.9961 12H61.7961V26H58.8961ZM78.6031 12V26H75.7031V13.5H67.5031V26H64.6031V12H78.6031ZM98.3922 26.8H95.4922V25.2H94.8922C93.8122 25.2 92.8322 25.0667 91.9522 24.8C91.0855 24.52 90.3389 24.12 89.7122 23.6C89.0989 23.08 88.6255 22.4333 88.2922 21.66C87.9589 20.8867 87.7922 20 87.7922 19C87.7922 18 87.9589 17.1133 88.2922 16.34C88.6255 15.5667 89.0989 14.92 89.7122 14.4C90.3389 13.88 91.0855 13.4867 91.9522 13.22C92.8322 12.94 93.8122 12.8 94.8922 12.8H95.4922V11.2H98.3922V12.8H98.9922C100.072 12.8 101.046 12.94 101.912 13.22C102.792 13.4867 103.539 13.88 104.152 14.4C104.779 14.92 105.259 15.5667 105.592 16.34C105.926 17.1133 106.092 18 106.092 19C106.092 20 105.926 20.8867 105.592 21.66C105.259 22.4333 104.779 23.08 104.152 23.6C103.539 24.12 102.792 24.52 101.912 24.8C101.046 25.0667 100.072 25.2 98.9922 25.2H98.3922V26.8ZM98.3922 23.7H98.9922C99.5389 23.7 100.052 23.6133 100.532 23.44C101.026 23.2667 101.452 22.9933 101.812 22.62C102.172 22.2467 102.459 21.7667 102.672 21.18C102.886 20.58 102.992 19.8533 102.992 19C102.992 18.1467 102.886 17.4267 102.672 16.84C102.459 16.24 102.172 15.7533 101.812 15.38C101.452 15.0067 101.026 14.7333 100.532 14.56C100.052 14.3867 99.5389 14.3 98.9922 14.3H98.3922V23.7ZM95.4922 14.3H94.8922C94.3455 14.3 93.8255 14.3867 93.3322 14.56C92.8522 14.7333 92.4322 15.0067 92.0722 15.38C91.7122 15.7533 91.4255 16.24 91.2122 16.84C90.9989 17.4267 90.8922 18.1467 90.8922 19C90.8922 19.8533 90.9989 20.58 91.2122 21.18C91.4255 21.7667 91.7122 22.2467 92.0722 22.62C92.4322 22.9933 92.8522 23.2667 93.3322 23.44C93.8255 23.6133 94.3455 23.7 94.8922 23.7H95.4922V14.3ZM119.795 26V14.6H119.595L112.095 26H108.295V12H111.195V23.4H111.395L118.895 12H122.695V26H119.795ZM139.502 12V26H136.602V19.9H128.402V26H125.502V12H128.402V18.4H136.602V12H139.502ZM145.998 21.1H152.198L149.198 13.7H148.998L145.998 21.1ZM151.398 12L157.098 26H154.218L152.898 22.6H145.298L143.978 26H141.098L146.798 12H151.398ZM172.705 12V26H169.805V19.9H161.605V26H158.705V12H161.605V18.4H169.805V12H172.705ZM183.502 24.9C184.408 24.9 185.275 24.7467 186.102 24.44C186.942 24.12 187.742 23.6067 188.502 22.9L189.502 24.1C188.742 24.8067 187.822 25.3667 186.742 25.78C185.662 26.1933 184.515 26.4 183.302 26.4C182.048 26.4 180.915 26.24 179.902 25.92C178.902 25.6 178.042 25.1267 177.322 24.5C176.615 23.8733 176.068 23.1 175.682 22.18C175.295 21.26 175.102 20.2 175.102 19C175.102 17.8 175.288 16.74 175.662 15.82C176.048 14.9 176.588 14.1267 177.282 13.5C177.988 12.8733 178.835 12.4 179.822 12.08C180.808 11.76 181.902 11.6 183.102 11.6C184.315 11.6 185.462 11.8067 186.542 12.22C187.622 12.6333 188.542 13.1933 189.302 13.9L188.302 15.1C187.542 14.3933 186.742 13.8867 185.902 13.58C185.075 13.26 184.208 13.1 183.302 13.1C182.582 13.1 181.908 13.22 181.282 13.46C180.655 13.6867 180.115 14.04 179.662 14.52C179.208 15 178.848 15.6133 178.582 16.36C178.328 17.0933 178.202 17.9733 178.202 19C178.202 20.0267 178.328 20.9133 178.582 21.66C178.848 22.3933 179.215 23 179.682 23.48C180.162 23.96 180.722 24.32 181.362 24.56C182.015 24.7867 182.728 24.9 183.502 24.9Z" fill="black"/>
</svg>
