<?xml version="1.0" encoding="UTF-8"?>
<svg width="220px" height="37px" viewBox="0 0 220 37" version="1.1" xmlns="http://www.w3.org/2000/svg" xmlns:xlink="http://www.w3.org/1999/xlink">
    <!-- Generator: Sketch 58 (84663) - https://sketch.com -->
    <title>Group 2 Copy 3</title>
    <desc>Created with Sketch.</desc>
    <g id="Page-1" stroke="none" stroke-width="1" fill="none" fill-rule="evenodd">
        <g id="Group-2-Copy-3" fill="#FFFFFF" fill-rule="nonzero">
            <path d="M51.501749,4.01520913 L51.501749,11.021749 L50.8945511,11.2361472 C49.7194879,11.6449259 48.7656708,11.9251711 47.7676046,11.9251711 C45.4187072,11.9251711 44.013384,11.2425856 44.013384,9.09444867 C44.013384,7.42813688 44.1539163,5.68152091 44.4149049,4.01520913 L42.226616,4.01520913 C41.9780554,5.25801195 41.8387522,7.52055043 41.8260489,8.37488253 L41.8250951,8.4921673 C41.8250951,12.6679848 43.8527757,14.073308 47.6873004,14.073308 C49.4339163,14.073308 50.4979468,13.7119392 51.501749,13.2301141 L51.501749,18.9919392 L53.690038,18.9919392 L53.690038,4.01520913 L51.501749,4.01520913 Z M62.7844867,5.60121673 L56.299924,18.9919392 L58.6688973,18.9919392 L59.0503422,18.2892776 C59.391635,17.6669202 60.8571863,16.8036502 63.5875285,16.8036502 L68.1447909,16.8036502 L69.1285171,18.9919392 L71.5777947,18.9919392 L64.3704943,3.75422053 L61.9613688,3.75422053 L62.7844867,5.60121673 Z M64.3905703,14.5952852 C62.3428137,14.5952852 61.1181749,14.97673 60.5761217,15.4384791 L63.8886692,8.2713308 L67.1610646,14.5952852 L64.3905703,14.5952852 Z M87.2170342,5.94250951 C85.7514829,4.47695817 83.7037262,3.57353612 81.4552091,3.57353612 C77.1589354,3.57353612 73.3846388,6.8660076 73.3846388,11.2827376 C73.3846388,15.7998479 76.8979468,19.3332319 81.4351331,19.3332319 C83.8442586,19.3332319 86.0526236,18.3093536 87.558327,16.6229658 L86.2132319,14.7960456 C85.1291255,16.2415209 83.4025856,17.144943 81.4552091,17.144943 C78.323346,17.144943 75.5327757,14.7759696 75.5327757,11.5437262 C75.5327757,8.17095057 78.1025095,5.78190114 81.4351331,5.78190114 C83.141597,5.78190114 84.7276046,6.46448669 85.811711,7.58874525 L87.2170342,5.94250951 Z M103.719544,11.4031939 C103.719544,14.6555133 101.04943,17.144943 97.8372624,17.144943 C94.7053992,17.144943 91.9148289,14.7759696 91.9148289,11.5437262 C91.9148289,8.17095057 94.4845627,5.78190114 97.8171863,5.78190114 C101.009278,5.78190114 103.719544,8.11072243 103.719544,11.4031939 Z M105.887757,11.5236502 C105.887757,7.04669202 102.274068,3.57353612 97.8372624,3.57353612 C93.5409886,3.57353612 89.766692,6.8660076 89.766692,11.2827376 C89.766692,15.7998479 93.28,19.3332319 97.8171863,19.3332319 C102.153612,19.3332319 105.887757,15.9403802 105.887757,11.5236502 Z M111.468897,6.22357414 L116.88943,6.22357414 C118.194373,6.22357414 119.117871,6.70539924 119.117871,8.13079848 C119.117871,9.51604563 118.234525,10.1986312 116.88943,10.1986312 L114.319696,10.1986312 C113.33597,10.1986312 112.372319,10.2789354 111.468897,10.8009125 L111.468897,6.22357414 Z M111.468897,13.0293536 C112.372319,12.5475285 113.356046,12.4270722 114.319696,12.4270722 L116.88943,12.4270722 C118.334905,12.4270722 119.860684,12.8687452 119.860684,14.6153612 C119.860684,16.1210646 118.334905,16.8036502 117.110266,16.8036502 L111.468897,16.8036502 L111.468897,13.0293536 Z M122.028897,14.8964259 C122.028897,12.8285932 121.005019,11.5437262 119.961065,11.0619011 C120.844411,10.4997719 121.30616,9.39558935 121.30616,8.11072243 C121.30616,5.48076046 119.419011,4.01520913 116.88943,4.01520913 L109.300684,4.01520913 L109.300684,18.9919392 L116.88943,18.9919392 C119.378859,18.9919392 122.028897,17.8676806 122.028897,14.8964259 Z M138.591635,11.4031939 C138.591635,14.6555133 135.921521,17.144943 132.709354,17.144943 C129.57749,17.144943 126.78692,14.7759696 126.78692,11.5437262 C126.78692,8.17095057 129.356654,5.78190114 132.689278,5.78190114 C135.881369,5.78190114 138.591635,8.11072243 138.591635,11.4031939 Z M140.759848,11.5236502 C140.759848,7.04669202 137.14616,3.57353612 132.709354,3.57353612 C128.41308,3.57353612 124.638783,6.8660076 124.638783,11.2827376 C124.638783,15.7998479 128.152091,19.3332319 132.689278,19.3332319 C137.025703,19.3332319 140.759848,15.9403802 140.759848,11.5236502 Z M155.154373,4.01520913 L157.322586,4.01520913 L157.322586,18.9919392 L155.154373,18.9919392 L155.154373,7.44821293 L146.340989,18.9919392 L144.172776,18.9919392 L144.172776,4.01520913 L146.340989,4.01520913 L146.340989,15.5589354 L155.154373,4.01520913 Z M150.858099,1.50570342 C152.163042,1.50570342 152.403954,0.64243346 152.403954,0 L154.7127,0 C154.572167,1.24471483 153.728973,2.91102662 150.858099,2.91102662 C147.987224,2.91102662 147.14403,1.24471483 147.003498,0 L149.312243,0 C149.312243,0.64243346 149.553156,1.50570342 150.858099,1.50570342 Z M170.452319,16.8036502 C172.459924,13.9126996 173.965627,9.45581749 174.347072,6.22357414 L178.061141,6.22357414 L178.061141,16.8036502 L170.452319,16.8036502 Z M181.554373,21.3006844 L181.554373,16.8036502 L180.24943,16.8036502 L180.24943,4.01520913 L169.589049,4.01520913 L170.512548,6.22357414 L172.158783,6.22357414 C171.476198,10.4194677 170.111027,13.9528517 167.782205,16.8036502 L165.57384,16.8036502 L165.57384,21.3006844 L167.762129,21.3006844 L167.762129,18.9919392 L179.366084,18.9919392 L179.366084,21.3006844 L181.554373,21.3006844 Z M197.715589,11.4031939 C197.715589,14.6555133 195.045475,17.144943 191.833308,17.144943 C188.701445,17.144943 185.910875,14.7759696 185.910875,11.5437262 C185.910875,8.17095057 188.480608,5.78190114 191.813232,5.78190114 C195.005323,5.78190114 197.715589,8.11072243 197.715589,11.4031939 Z M199.883802,11.5236502 C199.883802,7.04669202 196.270114,3.57353612 191.833308,3.57353612 C187.537034,3.57353612 183.762738,6.8660076 183.762738,11.2827376 C183.762738,15.7998479 187.276046,19.3332319 191.813232,19.3332319 C196.149658,19.3332319 199.883802,15.9403802 199.883802,11.5236502 Z M216.085171,8.69292776 L210.965779,14.8161217 L205.88654,8.69292776 L205.88654,18.9919392 L203.738403,18.9919392 L203.738403,6.12319392 L201.991787,4.01520913 L204.82251,4.01520913 L210.945703,11.3630418 L217.149202,4.01520913 L219.979924,4.01520913 L218.233308,6.12319392 L218.233308,18.9919392 L216.085171,18.9919392 L216.085171,8.69292776 Z" id="ЧАСОВОЙДОМ"></path>
            <path d="M43.7457034,31.1647148 C44.0468441,31.0141445 44.3780989,30.9639544 44.6993156,30.9639544 C45.1409886,30.9639544 46.4559696,31.1847909 47.1385551,31.1847909 C47.4497338,31.1847909 47.8311787,31.1346008 48.1523954,30.9940684 L48.1523954,34.4772624 L49.2465399,34.4772624 L49.2465399,26.9888973 L48.1523954,26.9888973 L48.1523954,29.8898859 C47.8311787,30.0304183 47.4497338,30.0806084 47.1385551,30.0806084 C46.4559696,30.0806084 45.1409886,29.8597719 44.6993156,29.8597719 C44.3780989,29.8597719 44.0468441,29.909962 43.7457034,30.0605323 L43.7457034,26.9888973 L42.661597,26.9888973 L42.661597,34.4772624 L43.7457034,34.4772624 L43.7457034,31.1647148 Z M53.7937643,27.7819011 L50.5514829,34.4772624 L51.7359696,34.4772624 L51.926692,34.1259316 C52.0973384,33.8147529 52.8301141,33.3831179 54.1952852,33.3831179 L56.4739163,33.3831179 L56.9657795,34.4772624 L58.1904183,34.4772624 L54.5867681,26.858403 L53.3822053,26.858403 L53.7937643,27.7819011 Z M54.5968061,32.2789354 C53.5729278,32.2789354 52.9606084,32.4696578 52.6895817,32.7005323 L54.3458555,29.1169582 L55.9820532,32.2789354 L54.5968061,32.2789354 Z M68.4994677,33.3831179 L68.4994677,26.9888973 L67.4053232,26.9888973 L67.4053232,33.3831179 L63.4001521,33.3831179 L63.4001521,26.9888973 L62.3160456,26.9888973 L62.3160456,34.4772624 L68.2384791,34.4772624 L67.5358175,36.0532319 L68.7504183,36.0532319 L69.954981,33.3831179 L68.4994677,33.3831179 Z M72.6451711,28.0930798 L75.3554373,28.0930798 C76.0079087,28.0930798 76.4696578,28.3339924 76.4696578,29.046692 C76.4696578,29.7393156 76.0279848,30.0806084 75.3554373,30.0806084 L74.0705703,30.0806084 C73.5787072,30.0806084 73.0968821,30.1207605 72.6451711,30.381749 L72.6451711,28.0930798 Z M72.6451711,31.4959696 C73.0968821,31.255057 73.5887452,31.1948289 74.0705703,31.1948289 L75.3554373,31.1948289 C76.0781749,31.1948289 76.8410646,31.4156654 76.8410646,32.2889734 C76.8410646,33.0418251 76.0781749,33.3831179 75.4658555,33.3831179 L72.6451711,33.3831179 L72.6451711,31.4959696 Z M77.9251711,32.4295057 C77.9251711,31.3955894 77.4132319,30.7531559 76.8912548,30.5122433 C77.3329278,30.2311787 77.5638023,29.6790875 77.5638023,29.036654 C77.5638023,27.721673 76.6202281,26.9888973 75.3554373,26.9888973 L71.5610646,26.9888973 L71.5610646,34.4772624 L75.3554373,34.4772624 C76.6001521,34.4772624 77.9251711,33.9151331 77.9251711,32.4295057 Z M80.8261597,31.4758935 C81.2778707,31.234981 81.7596958,31.1847909 82.2415209,31.1847909 L83.8777186,31.1847909 L83.8777186,30.0705703 L82.2415209,30.0705703 C81.7496578,30.0705703 81.2778707,30.1006844 80.8261597,30.361673 L80.8261597,28.0930798 L85.0019772,28.0930798 L85.0019772,26.9888973 L79.7320152,26.9888973 L79.7320152,34.4772624 L85.4436502,34.4772624 L85.4436502,33.3831179 L80.8261597,33.3831179 L80.8261597,31.4758935 Z M92.7714068,28.0930798 L92.7714068,26.9888973 L86.3972624,26.9888973 L86.3972624,28.0930798 L89.0673764,28.0930798 L89.0673764,34.4772624 L90.1314068,34.4772624 L90.1314068,28.0930798 L92.7714068,28.0930798 Z M95.2608365,31.1647148 C95.5619772,31.0141445 95.8932319,30.9639544 96.2144487,30.9639544 C96.6561217,30.9639544 97.9711027,31.1847909 98.6536882,31.1847909 C98.9648669,31.1847909 99.3463118,31.1346008 99.6675285,30.9940684 L99.6675285,34.4772624 L100.761673,34.4772624 L100.761673,26.9888973 L99.6675285,26.9888973 L99.6675285,29.8898859 C99.3463118,30.0304183 98.9648669,30.0806084 98.6536882,30.0806084 C97.9711027,30.0806084 96.6561217,29.8597719 96.2144487,29.8597719 C95.8932319,29.8597719 95.5619772,29.909962 95.2608365,30.0605323 L95.2608365,26.9888973 L94.17673,26.9888973 L94.17673,34.4772624 L95.2608365,34.4772624 L95.2608365,31.1647148 Z M109.444563,30.6828897 C109.444563,32.3090494 108.109506,33.5537643 106.503422,33.5537643 C104.93749,33.5537643 103.542205,32.3692776 103.542205,30.7531559 C103.542205,29.0667681 104.827072,27.8722433 106.493384,27.8722433 C108.08943,27.8722433 109.444563,29.036654 109.444563,30.6828897 Z M110.528669,30.7431179 C110.528669,28.5046388 108.721825,26.7680608 106.503422,26.7680608 C104.355285,26.7680608 102.468137,28.4142966 102.468137,30.6226616 C102.468137,32.8812167 104.224791,34.6479087 106.493384,34.6479087 C108.661597,34.6479087 110.528669,32.9514829 110.528669,30.7431179 Z M118.629354,29.3277567 L116.069658,32.3893536 L113.530038,29.3277567 L113.530038,34.4772624 L112.45597,34.4772624 L112.45597,28.0428897 L111.582662,26.9888973 L112.998023,26.9888973 L116.05962,30.6628137 L119.161369,26.9888973 L120.57673,26.9888973 L119.703422,28.0428897 L119.703422,34.4772624 L118.629354,34.4772624 L118.629354,29.3277567 Z" id="НАЦВЕТНОМ"></path>
            <g id="noun_Watch_2934148-Copy" transform="translate(0.000000, 2.509506)">
                <g id="Group">
                    <path d="M16.7768467,0.283445669 C7.66798326,0.283445669 0.330176242,7.62109756 0.330176242,16.730115 C0.330176242,25.8389785 7.66798326,33.1767855 16.7768467,33.1767855 C25.8857102,33.1767855 33.223515,25.8389785 33.223515,16.730115 C33.223515,7.62109751 25.8857102,0.283445669 16.7768467,0.283445669 Z M16.7768467,31.9116569 C8.42703005,31.9116569 1.59530489,25.0799339 1.59530489,16.730115 C1.59530489,8.38029619 8.42703005,1.54857322 16.7768467,1.54857322 C25.1266634,1.54857322 31.9583863,8.38029838 31.9583863,16.730115 C31.9583863,25.0799317 25.1266634,31.9116569 16.7768467,31.9116569 Z" id="Shape"></path>
                    <path d="M17.9913199,17.0590611 C18.0166476,16.9577523 18.0419754,16.8565976 18.0419754,16.730115 C18.0419754,16.1228785 17.6372023,15.6421244 17.080465,15.5154878 L17.080465,8.88622621 C17.080465,8.70909042 16.9539825,8.55728015 16.7768467,8.55728015 C16.5997109,8.55728015 16.4732284,8.70909042 16.4732284,8.88622621 L16.4732284,15.5154879 C15.9164911,15.6421244 15.5117181,16.1228785 15.5117181,16.7301151 C15.5117181,17.4385064 16.0683013,17.9952437 16.7768467,17.9952437 C17.1311183,17.9952437 17.4600644,17.8434335 17.7130293,17.6156444 L23.7097266,21.0567566 C23.7603799,21.0820822 23.8110354,21.10741 23.8615347,21.10741 C23.9628435,21.10741 24.089326,21.031583 24.1398252,20.9302742 C24.2158085,20.7784639 24.165153,20.6013281 24.0133449,20.5001734 L17.9913199,17.0590611 Z" id="Path"></path>
                    <path d="M16.7768467,2.05465618 C8.67999284,2.05465618 2.10138675,8.63326123 2.10138675,16.730115 C2.10138675,24.8269688 8.6799929,31.4055728 16.7768467,31.4055728 C24.8737005,31.4055728 31.4523067,24.8269688 31.4523067,16.730115 C31.4523067,8.63326123 24.8736984,2.05465618 16.7768467,2.05465618 Z M26.3664665,11.0623638 C26.4171176,11.1635186 26.5436001,11.2393456 26.6449111,11.2393456 C26.6954081,11.2393456 26.7460636,11.2141741 26.7967191,11.1888463 L28.9220494,9.99954465 C30.01004,11.9225654 30.6426066,14.1238767 30.6679321,16.4264968 L28.1630003,16.4264968 C27.9858667,16.4264968 27.8593842,16.5529793 27.8593842,16.7301151 C27.8593842,16.9072509 27.9858667,17.0337334 28.1630003,17.0337334 L30.6679321,17.0337334 C30.6426066,19.2603725 30.0606955,21.3857005 29.0233559,23.2580679 L26.7967191,22.0182648 C26.6449111,21.9424378 26.4424475,21.9929393 26.3664665,22.1449013 C26.2906351,22.2967116 26.3412906,22.4990211 26.493103,22.5750021 L28.7195858,23.814803 C27.5557637,25.7378216 25.9363635,27.3823978 24.0133449,28.5716994 L22.596406,26.4208896 C22.520579,26.2690771 22.3181154,26.2439056 22.1663052,26.3450626 C22.0144972,26.4208896 21.9891694,26.6233532 22.0903242,26.7751612 L23.5072609,28.8753155 C21.5843964,29.9633106 19.3830851,30.5958727 17.0804651,30.6212027 L17.0804651,28.1162709 C17.0804651,27.9391329 16.9539826,27.8126548 16.7768468,27.8126548 C16.599711,27.8126548 16.4732285,27.9391329 16.4732285,28.1162709 L16.4732285,30.6212027 C14.1706084,30.5958727 11.9692971,29.9633106 10.0464304,28.8753155 L11.4633693,26.7751612 C11.5645241,26.6233532 11.5391963,26.4208896 11.387386,26.3450626 C11.235578,26.2439056 11.0331145,26.2690771 10.9572875,26.4208896 L9.54034855,28.5716994 C7.69315701,27.4077233 6.09923633,25.8389785 4.96059017,23.991941 L7.06059156,22.8279671 C7.21240073,22.7521401 7.26305623,22.5496743 7.18722808,22.3978663 C7.11124596,22.2460561 6.90878239,22.1954028 6.75697327,22.2713838 L4.63164411,23.4605315 C3.54365235,21.5375107 2.911088,19.3361994 2.88576022,17.0337334 L5.39068985,17.0337334 C5.56782675,17.0337334 5.69430924,16.9072509 5.69430924,16.7301151 C5.69430924,16.5529793 5.56782675,16.4264968 5.39068985,16.4264968 L2.88576022,16.4264968 C2.911088,14.1998577 3.49299789,12.0743757 4.5303353,10.2020082 L6.75697327,11.4418113 C6.80762768,11.4671369 6.85828208,11.4671369 6.90878245,11.4671369 C7.01009125,11.4671369 7.13657374,11.4164836 7.18722814,11.3153289 C7.26305623,11.1635186 7.21240073,10.9610551 7.06059162,10.8852281 L4.83410774,9.64542715 C5.99792758,7.72240637 7.61732788,6.07767841 9.5403486,4.88853188 L10.9572875,7.03918877 C11.0077868,7.14034354 11.1090955,7.19099679 11.2102503,7.19099679 C11.2609058,7.19099679 11.3367328,7.16566901 11.3873861,7.11516979 C11.5391964,7.03918877 11.5645241,6.83672519 11.4633694,6.68491498 L10.0464305,4.5849125 C11.9692972,3.49676665 14.1706084,2.86420235 16.4732285,2.83902976 L16.4732285,5.34395934 C16.4732285,5.52109623 16.599711,5.64757763 16.7768468,5.64757763 C16.9539826,5.64757763 17.0804651,5.52109623 17.0804651,5.34395934 L17.0804651,2.83902976 C19.3830852,2.86420235 21.5843965,3.49676671 23.507261,4.5849125 L22.0903243,6.68491498 C21.9891695,6.83672525 22.0144973,7.03918877 22.1663053,7.11516979 C22.2169608,7.16566907 22.2927878,7.19099679 22.3434433,7.19099679 C22.444598,7.19099679 22.5459068,7.14034348 22.5964061,7.03918877 L24.013345,4.88853188 C25.8605365,6.05235063 27.4544572,7.62109762 28.5931034,9.46829135 L26.4931031,10.632109 C26.3412905,10.7080922 26.290635,10.9105557 26.3664665,11.0623638 Z" id="Shape"></path>
                </g>
            </g>
        </g>
    </g>
</svg>