<svg width="176" height="32" viewBox="0 0 176 32" fill="none" xmlns="http://www.w3.org/2000/svg">
<path fill-rule="evenodd" clip-rule="evenodd" d="M57.8237 1.16857H56.9371C55.8854 3.0296 55.5555 3.63646 55.1018 4.42537C53.8852 6.56959 52.5037 9.03747 50.4828 11.5863C49.9055 12.3145 48.7095 13.7912 47.4104 14.5396C47.2454 14.6205 46.4618 15.0858 45.7195 15.0858C44.8122 15.0858 44.1523 14.4992 44.1523 13.5484C44.1523 12.5168 44.9772 12.1122 45.4927 12.1122C46.0907 12.1122 46.5031 12.5977 46.5031 13.1843C46.5031 13.7103 46.1113 13.953 45.8432 14.0339C45.7195 14.0744 45.4927 14.1351 45.4927 14.2767C45.4927 14.398 45.637 14.5194 45.8845 14.5194C46.2969 14.5194 47.0392 14.3171 47.9671 13.5484C48.9569 12.7191 50.1323 11.3233 51.1015 9.98821C52.3593 8.24856 53.9265 5.61885 54.7925 4.04103C55.4936 2.7464 55.6792 2.26092 55.7823 1.97772C55.8236 1.85634 55.8442 1.77543 55.8442 1.63383C55.8442 1.22926 55.6174 1.1888 55.4111 1.16857C54.9163 1.12812 54.7513 1.1888 53.7203 1.12812C53.6378 1.12812 53.4934 1.10789 53.4934 0.966289C53.4934 0.865147 53.5759 0.764004 53.8852 0.764004C54.4007 0.764004 54.8544 0.804461 55.3287 0.804461H60.1951C60.5663 0.784232 60.525 0.743775 60.7106 0.743775C60.855 0.743775 60.9993 0.784232 60.9993 0.946061C60.9993 1.06743 60.8962 1.1888 60.6488 1.81589L56.0091 13.6698C55.906 13.9328 55.906 14.0339 55.906 14.0946C55.906 14.2362 55.9885 14.3171 56.1122 14.3778C56.2772 14.4587 56.4628 14.4789 56.6896 14.4789C57.0195 14.4789 57.3289 14.4385 57.7206 14.4385C57.8444 14.4385 57.9681 14.4385 57.9681 14.6003C57.9681 14.8026 57.7825 14.8026 57.6175 14.8026C56.7721 14.8026 56.6278 14.7419 53.6378 14.7419C51.3283 14.7419 52.2562 14.8228 50.8746 14.8228C50.7509 14.8228 50.4622 14.8228 50.4622 14.6003C50.4622 14.4183 50.6478 14.398 50.7922 14.398C51.019 14.398 51.2046 14.4183 51.4108 14.4183C52.0706 14.4183 52.2562 14.3373 52.3387 14.2969C52.6274 14.1351 52.8542 13.6496 52.9161 13.4675L57.8237 1.16857ZM65.9895 6.16502C66.505 6.16502 67.4742 6.22571 68.2165 6.97416C68.732 7.5001 69.1444 8.3497 69.1444 9.38136C69.1444 9.86684 69.0826 10.3726 68.9382 10.8378C68.6083 11.9504 67.9072 13.0225 66.938 13.771C65.5358 14.8835 63.8862 15.0453 62.9376 15.0453C62.6696 15.0453 62.4015 15.0251 62.1541 14.9847C61.7416 14.9037 61.2055 14.7217 60.8756 14.4789C60.2364 14.0339 59.7415 13.1236 59.7415 12.1324C59.7415 11.5863 59.8858 11.0401 60.0714 10.5142C60.7106 8.83519 61.9066 7.68216 62.7933 7.09553C63.2469 6.79211 64.3192 6.16502 65.9895 6.16502ZM65.907 6.56959C64.9585 6.56959 64.278 7.76308 64.0305 8.18788C63.1851 9.66456 62.3809 11.7279 62.3809 13.3866C62.3809 14.4789 62.917 14.7015 63.247 14.7015C64.0099 14.7015 64.7316 13.6496 64.9791 13.2652C65.144 13.0225 65.2678 12.7393 65.3915 12.4763C65.8451 11.4649 66.67 8.9161 66.67 7.56079C66.67 7.35851 66.6493 7.17645 66.5669 6.99439C66.4638 6.75165 66.2575 6.56959 65.907 6.56959ZM74.8151 7.27759L74.547 8.0665C74.4026 8.47107 74.0933 9.28022 73.9078 9.72524C73.7222 10.1703 73.2067 11.3638 72.918 11.9706C72.6087 12.6382 72.3406 13.1236 71.8869 13.7305C71.0621 14.8228 70.2579 15.0049 69.8043 15.0049C69.4537 15.0049 69.1857 14.8633 68.9795 14.7015C68.7732 14.5396 68.5052 14.2362 68.5052 13.7305C68.5052 13.1439 68.897 12.5572 69.5774 12.5572C70.0517 12.5572 70.5054 12.8809 70.5054 13.4675C70.5054 13.9328 70.1754 14.1755 69.8249 14.1755C69.7837 14.1755 69.7218 14.1755 69.6806 14.1553C69.6187 14.1351 69.5774 14.1148 69.5156 14.1148C69.4125 14.1148 69.3712 14.1957 69.3712 14.2564C69.3712 14.3576 69.5156 14.6003 69.8868 14.6003C70.5672 14.6003 71.2683 13.9732 71.7014 13.3664C72.0932 12.8202 72.6705 11.6672 72.9386 11.0603C73.3098 10.231 74.0521 8.41039 74.2789 7.66193C74.4027 7.29782 74.4233 7.11576 74.4233 6.95393C74.4233 6.54936 74.1964 6.56959 73.8871 6.56959C73.5984 6.56959 73.351 6.54936 73.1036 6.52914C72.8974 6.52914 72.5674 6.50891 72.5674 6.30662C72.5674 6.16502 72.753 6.16502 72.7942 6.16502C73.0211 6.16502 73.1654 6.20548 73.5572 6.22571C73.9284 6.26616 74.2789 6.26616 74.6501 6.26616C75.5162 6.26616 76.5059 6.22571 77.2277 6.16502L76.8565 11.5863L80.6919 6.61005C80.7332 6.54936 80.8363 6.40776 80.8775 6.34708C80.9394 6.24594 80.96 6.18525 81.1249 6.18525C81.2074 6.18525 81.2899 6.20548 81.3724 6.20548C81.7023 6.24594 82.0529 6.22571 82.4034 6.22571C82.6921 6.22571 83.0014 6.24594 83.2901 6.18525C83.4138 6.14479 83.4757 6.12456 83.5375 6.12456C83.62 6.12456 83.62 6.18525 83.62 6.24594C83.62 6.38754 83.5582 6.50891 83.2076 7.37873L80.5888 13.69C80.5682 13.7507 80.5269 13.8721 80.5269 13.9935C80.5269 14.3778 80.7125 14.4789 81.1043 14.4789C81.4549 14.4789 81.7023 14.3171 81.991 14.1148C82.3415 13.8721 82.5478 13.7103 82.8364 13.4068C82.8983 13.3462 82.9808 13.2652 83.0633 13.2652C83.1251 13.2652 83.1664 13.3462 83.1664 13.4271C83.1664 13.5282 83.0839 13.6091 83.022 13.69C82.9189 13.7912 82.8364 13.8923 82.7333 13.9935C82.4034 14.3171 81.5167 15.0251 79.8259 15.0251C79.3722 15.0251 78.8361 14.9442 78.4855 14.5396C78.2381 14.2564 78.1968 13.953 78.1968 13.69C78.1968 13.245 78.3205 12.9011 78.403 12.6988L80.7744 7.09553H80.7538L75.4955 13.9935C75.4337 14.0744 75.3718 14.1755 75.31 14.2564C75.2069 14.398 75.1038 14.5194 75.0006 14.661C74.9182 14.7621 74.7738 15.0049 74.6501 15.0049C74.5882 15.0049 74.5264 14.924 74.4851 14.8633C74.4233 14.7621 74.4233 14.6812 74.4233 14.5599L74.8357 7.27759H74.8151ZM85.3728 9.09816H85.3934C86.4244 7.43942 87.7647 6.67074 88.1359 6.46845C88.9401 6.04365 89.7031 5.84137 90.631 5.84137C91.5383 5.84137 92.1982 6.02342 92.7962 6.67074C93.2498 7.15622 93.7241 8.00582 93.7241 9.25999C93.7241 11.121 92.7962 12.6786 91.7445 13.5889C90.5485 14.6205 88.9814 15.0453 87.5792 15.0453C86.8162 15.0453 85.847 14.924 85.1253 14.1755C84.7335 13.7507 84.3417 13.063 84.3417 11.9099C84.3417 10.858 84.6511 9.78593 85.2078 8.41039C85.8058 6.91348 86.3626 5.98296 87.1255 4.89062C87.6616 4.12194 88.2184 3.43417 88.9607 2.80709C89.4556 2.38229 89.9299 2.09909 90.6722 1.8968C91.5589 1.65406 92.6931 1.6136 93.9715 1.53269C94.4252 1.51246 94.8788 1.472 95.2294 1.3304C95.4562 1.24949 95.6624 1.10789 95.7861 0.946061C95.8892 0.804461 95.9511 0.501033 96.0954 0.501033C96.1779 0.501033 96.2604 0.561719 96.2604 0.662861C96.2604 0.703318 96.2604 0.82469 95.848 1.45177C95.4356 2.05863 94.8788 2.70594 94.1777 3.11051C93.4766 3.53531 92.9199 3.57577 92.3425 3.63646C91.1259 3.75783 90.631 3.75783 90.0124 3.83874C89.3113 3.91965 88.7545 4.06125 88.1153 4.5872C87.4761 5.11314 86.8574 5.96274 86.4863 6.63028C86.1976 7.13599 85.7439 8.04628 85.3728 9.09816ZM90.5485 6.22571C89.4969 6.22571 88.7545 7.64171 88.2596 8.67336C87.7441 9.78593 86.9399 11.5256 86.9399 13.3057C86.9399 14.4385 87.4348 14.7015 87.8679 14.7015C88.4865 14.7015 89.2907 13.9125 89.9299 12.5775C90.5485 11.2828 91.3115 8.6329 91.3115 7.15622C91.3115 6.99439 91.3115 6.22571 90.5485 6.22571ZM105.004 6.75165L102.405 12.4561C102.137 13.0225 102.075 13.3057 102.075 13.5282C102.075 13.7507 102.137 13.9328 102.385 14.0541C102.467 14.0946 102.55 14.1148 102.632 14.1148C102.88 14.1148 103.292 13.9125 103.519 13.7507C104.076 13.3664 104.076 13.1843 104.199 13.1843C104.261 13.1843 104.344 13.245 104.344 13.3664C104.344 13.6293 103.746 14.0339 103.457 14.216C102.797 14.6003 101.539 15.0251 100.756 15.0251C100.405 15.0251 99.5597 14.9847 99.5597 13.7912C99.5597 13.5687 99.5803 13.4878 99.6009 13.3866C99.6215 13.3057 99.6215 13.2652 99.6215 13.2046C99.4566 13.4271 99.271 13.69 99.106 13.8721C98.2812 14.8228 97.3533 15.0251 96.7141 15.0251C95.5799 15.0251 94.487 14.3373 94.487 12.5572C94.487 11.3031 95.0438 10.231 95.8274 9.11839C96.4254 8.26879 97.0646 7.52033 98.1575 6.85279C98.7761 6.46845 99.6009 6.08411 100.591 6.08411C101.003 6.08411 101.539 6.16502 101.849 6.48868C101.952 6.58982 102.034 6.71119 102.075 6.83256C102.096 6.89325 102.117 6.97416 102.158 6.97416C102.199 6.97416 102.22 6.91348 102.24 6.87302L102.426 6.38754C102.508 6.18525 102.55 6.16502 102.673 6.16502L103.374 6.20548C103.478 6.20548 103.581 6.24594 103.931 6.24594C104.199 6.24594 104.55 6.22571 104.756 6.16502C104.9 6.12456 105.024 6.06388 105.107 6.06388C105.127 6.06388 105.148 6.06388 105.168 6.08411C105.189 6.10434 105.21 6.14479 105.21 6.18525C105.21 6.28639 105.045 6.65051 105.004 6.75165ZM100.962 6.54936C100.116 6.54936 99.3535 7.66193 98.8792 8.45085C98.1575 9.66456 97.1883 11.7279 97.1883 13.245C97.1883 13.6496 97.2502 14.2362 97.8276 14.2362C98.5699 14.2362 99.1267 13.2855 99.3947 12.7798C100.034 11.6065 101.292 8.85542 101.766 7.84399C101.807 7.76308 101.849 7.68216 101.869 7.60125C102.075 6.95393 101.395 6.54936 100.962 6.54936ZM110.633 7.54056L110.942 7.23713C111.994 6.20548 112.406 6.14479 113.355 6.14479C113.767 6.14479 114.241 6.14479 114.736 6.61005C115.334 7.17645 115.479 7.96536 115.479 8.55199C115.479 10.1096 114.551 12.1931 112.592 13.8114C112.262 14.0744 111.911 14.3373 111.54 14.5194C111.025 14.7824 110.282 14.9847 109.313 14.9847C108.756 14.9847 108.055 14.8633 107.705 13.9732L105.437 19.4956C105.808 19.4956 106.921 19.4349 106.921 19.6575C106.921 19.6979 106.901 19.8597 106.406 19.8597C105.375 19.8597 104.447 19.7586 103.498 19.7586C102.818 19.7586 102.137 19.8193 101.395 19.8193C101.354 19.8193 101.209 19.8193 101.209 19.6777C101.209 19.5159 101.457 19.4956 101.601 19.4754L102.323 19.3945C102.488 19.3743 102.735 19.354 102.9 19.1113C102.962 19.0304 102.983 18.9495 103.024 18.8483L108.179 6.79211C108.179 6.77188 108.2 6.77188 108.2 6.75165C108.22 6.71119 108.22 6.69096 108.22 6.65051C108.22 6.56959 108.2 6.46845 107.973 6.46845C107.767 6.46845 107.911 6.48868 107.705 6.48868H107.395C107.272 6.48868 107.107 6.48868 107.107 6.32685C107.107 6.26616 107.127 6.14479 107.292 6.14479C107.375 6.14479 107.457 6.16502 107.54 6.16502C107.705 6.18525 107.89 6.18525 108.055 6.18525C108.695 6.18525 109.416 6.16502 110.303 6.14479C110.509 6.14479 110.715 6.14479 110.901 6.06388C110.942 6.04365 111.004 6.02342 111.045 6.02342C111.066 6.02342 111.107 6.02342 111.128 6.04365C111.169 6.06388 111.231 6.12456 111.231 6.22571C111.231 6.34708 111.107 6.54936 111.087 6.61005L110.798 7.15622L110.633 7.54056ZM112.365 6.75165C112.241 6.75165 112.118 6.79211 111.994 6.83256C111.685 6.95393 111.375 7.19668 111.128 7.41919C110.715 7.82376 110.324 8.41039 109.664 9.66456C109.21 10.5344 108.612 11.7683 108.262 12.8809C108.179 13.1034 108.117 13.3462 108.117 13.5889C108.117 14.2362 108.571 14.6205 109.025 14.6205C109.746 14.6205 110.798 13.6496 111.85 11.2828C112.819 9.09816 112.942 8.08673 112.942 7.56079C112.942 7.07531 112.819 6.75165 112.365 6.75165ZM122.366 0.844918C121.892 0.844918 121.314 0.946061 120.881 1.16857C120.551 1.3304 120.304 1.57315 120.304 1.79566C120.304 1.95749 120.407 1.99794 120.51 2.0384C120.654 2.09909 120.943 2.22046 120.943 2.58457C120.943 2.96891 120.593 3.25211 120.118 3.25211C119.479 3.25211 119.335 2.72617 119.335 2.4632C119.335 2.09909 119.562 1.71474 119.912 1.39109C120.386 0.966289 120.923 0.784232 121.088 0.723547C121.541 0.581947 122.201 0.480804 122.634 0.480804C123.521 0.480804 124.964 0.743775 125.789 1.91703C126.201 2.50366 126.469 3.33303 126.469 4.46582C126.469 6.38754 125.768 9.07793 124.923 10.7974C123.315 14.0541 121.252 15.0858 119.129 15.0858C116.943 15.0858 115.788 13.7912 115.788 12.1122C115.788 10.6153 116.757 8.6329 118.551 7.31805C119.541 6.61005 120.716 6.12456 121.954 6.12456C122.49 6.12456 123.191 6.26616 123.541 7.09553C124.098 5.2952 124.242 4.14217 124.242 3.21166C124.242 2.70594 124.222 1.95749 123.809 1.43155C123.438 0.966289 122.943 0.844918 122.366 0.844918ZM122.201 6.52914C121.479 6.52914 120.654 7.03485 119.768 8.71382C118.675 10.7974 118.427 12.274 118.427 13.2855C118.427 13.7103 118.469 14.7217 119.355 14.7217C120.077 14.7217 120.696 13.8114 121.005 13.3259C121.974 11.7886 122.861 9.42181 123.376 7.68216C123.273 7.03485 122.799 6.52914 122.201 6.52914ZM137.522 7.47988H137.501C136.986 7.76308 136.532 7.96536 136.017 8.14742C135.604 8.28902 135.192 8.43062 134.676 8.43062C134.037 8.43062 133.645 8.22833 133.295 8.02605C132.862 7.76308 132.779 7.66193 132.676 7.66193C132.532 7.66193 132.491 7.7833 132.449 7.88445C132.326 8.2081 132.058 8.89587 131.996 9.01725C131.955 9.09816 131.893 9.21953 131.748 9.21953C131.686 9.21953 131.563 9.1993 131.563 9.01725C131.563 8.89587 131.625 8.75427 131.728 8.53176C131.893 8.14742 132.14 7.5001 132.305 7.03485C132.326 6.95393 132.511 6.42799 132.532 6.30662C132.573 6.10434 132.614 5.90205 132.841 5.90205C132.986 5.90205 133.13 5.98296 133.584 6.24594C134.017 6.50891 134.45 6.69096 134.841 6.81233C135.274 6.93371 135.852 7.03485 136.367 7.03485C136.738 7.03485 137.398 6.97416 137.728 6.87302C138.182 6.73142 138.244 6.48868 138.244 6.38754C138.244 6.34708 138.244 6.32685 138.223 6.28639C138.203 6.24594 138.182 6.20548 138.182 6.16502C138.182 6.08411 138.264 5.94251 138.45 5.94251C138.656 5.94251 138.739 6.10434 138.739 6.28639C138.739 6.44822 138.677 6.61005 138.594 6.75165C138.409 7.09553 137.79 7.7833 137.501 8.0665C137.027 8.53176 136.409 9.03747 135.872 9.60387C135.439 10.0489 134.78 10.8378 134.408 11.8492C134.182 12.4359 134.12 12.9214 134.12 13.4473C134.12 13.8721 134.202 14.5599 134.965 14.5599C135.439 14.5599 136.161 14.216 136.615 13.8114C137.048 13.4271 137.275 13.0225 137.46 12.7393C137.522 12.6382 137.605 12.5168 137.708 12.5168C137.831 12.5168 137.831 12.5977 137.831 12.6382C137.831 12.7798 137.77 12.9416 137.584 13.2248C137.378 13.5282 137.11 13.8923 136.656 14.2362C135.976 14.7621 135.233 15.0453 134.243 15.0453C133.852 15.0453 132.903 15.0049 132.181 14.5396C131.48 14.0744 131.336 13.4878 131.336 13.0225C131.336 12.3347 131.707 11.1008 133.769 9.9073C134.388 9.56341 135.357 9.11839 136.14 8.61267C136.635 8.28902 137.089 7.90468 137.522 7.47988ZM149.482 6.75165L146.884 12.4561C146.616 13.0225 146.554 13.3057 146.554 13.5282C146.554 13.7507 146.616 13.9328 146.863 14.0541C146.946 14.0946 147.028 14.1148 147.111 14.1148C147.358 14.1148 147.77 13.9125 147.997 13.7507C148.554 13.3664 148.554 13.1843 148.678 13.1843C148.74 13.1843 148.822 13.245 148.822 13.3664C148.822 13.6293 148.224 14.0339 147.935 14.216C147.276 14.6003 146.018 15.0251 145.234 15.0251C144.884 15.0251 144.038 14.9847 144.038 13.7912C144.038 13.5687 144.059 13.4878 144.079 13.3866C144.1 13.3057 144.1 13.2652 144.1 13.2046C143.935 13.4271 143.749 13.69 143.585 13.8721C142.76 14.8228 141.832 15.0251 141.193 15.0251C140.058 15.0251 138.965 14.3373 138.965 12.5572C138.965 11.3031 139.522 10.231 140.306 9.11839C140.904 8.26879 141.543 7.52033 142.636 6.85279C143.255 6.46845 144.079 6.08411 145.069 6.08411C145.482 6.08411 146.018 6.16502 146.327 6.48868C146.43 6.58982 146.513 6.71119 146.554 6.83256C146.574 6.89325 146.595 6.97416 146.636 6.97416C146.678 6.97416 146.698 6.91348 146.719 6.87302L146.904 6.38754C146.987 6.18525 147.028 6.16502 147.152 6.16502L147.853 6.20548C147.956 6.20548 148.059 6.24594 148.41 6.24594C148.678 6.24594 149.028 6.22571 149.235 6.16502C149.379 6.12456 149.503 6.06388 149.585 6.06388C149.606 6.06388 149.626 6.06388 149.647 6.08411C149.668 6.10434 149.688 6.14479 149.688 6.18525C149.688 6.28639 149.523 6.65051 149.482 6.75165ZM145.44 6.54936C144.595 6.54936 143.832 7.66193 143.358 8.45085C142.636 9.66456 141.667 11.7279 141.667 13.245C141.667 13.6496 141.729 14.2362 142.306 14.2362C143.048 14.2362 143.605 13.2855 143.873 12.7798C144.512 11.6065 145.77 8.85542 146.245 7.84399C146.286 7.76308 146.327 7.68216 146.348 7.60125C146.554 6.95393 145.873 6.54936 145.44 6.54936ZM156.039 6.10434C156.204 6.10434 156.637 6.12456 157.029 6.32685C157.421 6.52914 157.792 6.93371 157.792 7.58102C157.792 8.12719 157.524 8.45085 157.277 8.59245C157.132 8.67336 156.988 8.71382 156.823 8.71382C156.514 8.71382 156.225 8.53176 156.122 8.32947C156.06 8.22833 156.039 8.12719 156.039 8.00582C156.039 7.58102 156.349 7.41919 156.617 7.41919C156.864 7.41919 156.967 7.56079 157.132 7.56079C157.256 7.56079 157.277 7.45965 157.277 7.39896C157.277 6.85279 156.823 6.54936 156.328 6.54936C155.771 6.54936 154.967 6.99439 154.266 7.9249C154.122 8.12719 153.977 8.32947 153.833 8.55199C153.214 9.54319 152.761 10.5546 152.472 11.7886C152.369 12.2134 152.307 12.6382 152.307 13.0832C152.307 14.1148 152.822 14.5194 153.462 14.5194C153.874 14.5194 154.183 14.3373 154.472 14.1148C154.823 13.8519 155.07 13.6091 155.338 13.2855C155.379 13.2248 155.441 13.1843 155.483 13.1236C155.544 13.063 155.586 13.0225 155.668 13.0225C155.751 13.0225 155.792 13.063 155.792 13.1236C155.792 13.1843 155.771 13.3057 155.421 13.7305C154.699 14.5801 153.544 15.0453 152.493 15.0453C151.812 15.0453 150.946 14.8431 150.389 14.3171C149.977 13.9328 149.606 13.2855 149.606 12.355C149.606 11.8695 149.688 11.384 149.833 10.9187C150.183 9.78593 150.946 8.71382 151.688 7.98559C152.121 7.56079 152.616 7.19668 153.152 6.89325C154.225 6.30662 155.441 6.10434 156.039 6.10434ZM163.401 6.16502C163.916 6.16502 164.885 6.22571 165.628 6.97416C166.143 7.5001 166.556 8.3497 166.556 9.38136C166.556 9.86684 166.494 10.3726 166.35 10.8378C166.02 11.9504 165.319 13.0225 164.349 13.771C162.947 14.8835 161.298 15.0453 160.349 15.0453C160.081 15.0453 159.813 15.0251 159.565 14.9847C159.153 14.9037 158.617 14.7217 158.287 14.4789C157.648 14.0339 157.153 13.1236 157.153 12.1324C157.153 11.5863 157.297 11.0401 157.483 10.5142C158.122 8.83519 159.318 7.68216 160.205 7.09553C160.658 6.79211 161.731 6.16502 163.401 6.16502ZM163.318 6.56959C162.37 6.56959 161.689 7.76308 161.442 8.18788C160.596 9.66456 159.792 11.7279 159.792 13.3866C159.792 14.4789 160.328 14.7015 160.658 14.7015C161.421 14.7015 162.143 13.6496 162.39 13.2652C162.555 13.0225 162.679 12.7393 162.803 12.4763C163.256 11.4649 164.081 8.9161 164.081 7.56079C164.081 7.35851 164.061 7.17645 163.978 6.99439C163.875 6.75165 163.669 6.56959 163.318 6.56959ZM171.649 10.2512V10.2714C172.061 10.2916 172.701 10.3726 173.175 10.5142C174.474 10.8985 174.721 11.7683 174.721 12.3145C174.721 13.0832 174.35 14.0946 172.556 14.661C171.628 14.9442 170.783 15.0453 170.082 15.0453C169.69 15.0453 168.391 15.0251 167.669 14.4789C167.133 14.0744 166.948 13.508 166.948 12.8404C166.948 11.9706 167.319 10.8985 167.752 10.0894C168.123 9.40159 169.071 7.82376 170.618 6.89325C171.34 6.46845 172.329 6.06388 173.443 6.06388C174 6.06388 174.845 6.16502 175.361 6.50891C175.876 6.85279 176 7.33828 176 7.70239C176 8.26879 175.629 9.0577 174.639 9.58364C173.917 9.96799 172.948 10.15 171.649 10.2512ZM173.587 6.40776C172.804 6.40776 172.247 6.99439 171.793 7.72262C171.34 8.45085 170.824 9.50273 170.536 10.231C171.113 10.1298 172 9.9073 172.577 9.58364C173.526 9.03747 174.227 7.94513 174.227 7.05508C174.227 6.50891 173.897 6.40776 173.587 6.40776ZM171.092 10.4939C170.762 10.4939 170.515 10.5748 170.35 10.6355C170.041 11.3638 169.463 12.8607 169.463 13.69C169.463 14.5599 170.082 14.7015 170.432 14.7015C170.886 14.7015 171.381 14.4385 171.69 14.1351C172.226 13.6091 172.577 12.6988 172.577 11.9908C172.577 11.5054 172.433 11.121 172.185 10.8783C171.938 10.6355 171.505 10.4939 171.092 10.4939Z" fill="white"/>
<path fill-rule="evenodd" clip-rule="evenodd" d="M104.237 0.778015L104.464 2.84133C102.663 3.2459 101.047 3.56955 99.6178 3.81229L99.5146 2.35584C100.697 2.0187 102.271 1.49276 104.237 0.778015Z" fill="white"/>
<path fill-rule="evenodd" clip-rule="evenodd" d="M164.512 0L164.739 2.06331C162.938 2.46788 161.323 2.79154 159.893 3.03428L159.79 1.57783C160.972 1.24068 162.546 0.714745 164.512 0Z" fill="white"/>
<path fill-rule="evenodd" clip-rule="evenodd" d="M50.493 26.3438H51.2068V31.8989H50.493V29.3625H47.3285V31.8989H46.6147V26.3438H47.3285V28.709H50.493V26.3438ZM58.0591 31.8989L57.4722 30.195H54.9898L54.403 31.8989H53.6733L55.6323 26.3438H56.8378L58.8046 31.8989H58.0591ZM56.0685 27.0596L55.204 29.557H57.2502L56.3857 27.0596H56.0685ZM68.8849 30.3195H69.6383C69.4083 31.3076 68.639 32 67.3939 32C65.7046 32 64.7767 30.7707 64.7767 29.1213C64.7767 27.4719 65.7204 26.2426 67.4018 26.2426C68.5518 26.2426 69.3449 26.8417 69.5749 27.7987H68.8215C68.6073 27.2074 68.187 26.8806 67.4018 26.8806C66.0853 26.8806 65.4984 27.9465 65.4984 29.1213C65.4984 30.3039 66.0773 31.362 67.3939 31.362C68.187 31.362 68.7025 30.9652 68.8849 30.3195ZM72.3428 26.3438H74.738C75.9752 26.3438 76.6573 26.9662 76.6573 28.001C76.6573 29.0513 75.9752 29.6737 74.738 29.6737H73.0566V31.8989H72.3428V26.3438ZM73.0566 29.0513H74.619C75.5866 29.0513 75.9355 28.6545 75.9355 28.0088C75.9355 27.363 75.5866 26.9662 74.619 26.9662H73.0566V29.0513ZM80.0914 31.2609H83.4462V31.8989H79.3776V26.3438H83.3193V26.9818H80.0914V28.7012H82.6927V29.3392H80.0914V31.2609ZM89.9971 26.3438V26.9662H88.1413V31.8989H87.4275V26.9662H85.5558V26.3438H89.9971ZM93.1695 31.2609H96.5243V31.8989H92.4557V26.3438H96.3974V26.9818H93.1695V28.7012H95.7709V29.3392H93.1695V31.2609ZM103.091 26.3438H103.805V31.8989H103.091V29.3625H99.9267V31.8989H99.2129V26.3438H99.9267V28.709H103.091V26.3438ZM106.835 31.8989V26.3438H107.548V28.7168H109.261L110.396 26.3438H111.149L109.88 29.0435L111.22 31.8989H110.467L109.261 29.3547H107.548V31.8989H106.835ZM114.504 31.2609H117.859V31.8989H113.79V26.3438H117.732V26.9818H114.504V28.7012H117.105V29.3392H114.504V31.2609Z" fill="white"/>
<path d="M16.0081 0.427185H15.5418C15.3699 0.427185 15.2308 0.563634 15.2308 0.732188V8.35517C15.2308 8.52372 15.3699 8.66017 15.5418 8.66017H16.4741C16.646 8.66017 16.7851 8.52372 16.7851 8.35517V1.97209C24.3953 2.36957 30.4624 8.56839 30.4624 16.131C30.4624 23.9494 23.978 30.3105 16.0081 30.3105C8.03821 30.3105 1.55386 23.9494 1.55386 16.131C1.55386 12.4451 2.97787 8.97425 5.57012 6.3224C5.68893 6.20095 5.68893 6.00832 5.56763 5.88897L4.90809 5.24197C4.78643 5.12297 4.58971 5.12262 4.47089 5.24372C1.58516 8.18417 0 12.0379 0 16.131C0 24.7901 7.1816 31.8348 16.0081 31.8348C24.8347 31.8348 32.0163 24.7897 32.0163 16.131C32.0163 7.47192 24.835 0.427185 16.0081 0.427185Z" fill="white"/>
<path d="M14.5635 15.576C14.4952 15.7484 14.454 15.934 14.454 16.1305C14.454 16.9726 15.1494 17.6548 16.0078 17.6548C16.2081 17.6548 16.3974 17.615 16.5727 17.5473L18.4265 19.3655C18.5481 19.4845 18.7449 19.4845 18.8662 19.3655L19.3055 18.9345C19.4268 18.8151 19.4268 18.6222 19.3055 18.5032L17.4518 16.6847C17.5204 16.5126 17.5617 16.3266 17.5617 16.1305C17.5617 15.2884 16.8662 14.6058 16.0078 14.6058C15.8075 14.6058 15.6183 14.646 15.4426 14.7137L9.41425 8.79961C9.29294 8.68061 9.09622 8.68061 8.97527 8.79961L8.53558 9.23094C8.41392 9.34994 8.41392 9.54327 8.53558 9.66192L14.5635 15.576Z" fill="white"/>
</svg>
