<?xml version="1.0" encoding="UTF-8"?>
<svg width="190px" height="32px" viewBox="0 0 190 32" version="1.1" xmlns="http://www.w3.org/2000/svg" xmlns:xlink="http://www.w3.org/1999/xlink">
    <!-- Generator: Sketch 58 (84663) - https://sketch.com -->
    <title>Group 2 Copy 4</title>
    <desc>Created with Sketch.</desc>
    <g id="Page-1" stroke="none" stroke-width="1" fill="none" fill-rule="evenodd">
        <g id="Group-2-Copy-4" fill="#3E3E3E" fill-rule="nonzero">
            <path d="M44.4787833,3.46768061 L44.4787833,9.51878327 L43.954385,9.70394528 C42.9395577,10.0569815 42.1158066,10.2990114 41.2538403,10.2990114 C39.2252471,10.2990114 38.0115589,9.7095057 38.0115589,7.85429658 C38.0115589,6.41520913 38.1329278,4.90676806 38.358327,3.46768061 L36.4684411,3.46768061 C36.2537751,4.54101032 36.1334678,6.49502082 36.1224968,7.23285309 L36.121673,7.33414449 C36.121673,10.9405323 37.8728517,12.1542205 41.1844867,12.1542205 C42.6929278,12.1542205 43.6118631,11.8421293 44.4787833,11.4260076 L44.4787833,16.4021293 L46.3686692,16.4021293 L46.3686692,3.46768061 L44.4787833,3.46768061 Z M54.2229658,4.83741445 L48.6226616,16.4021293 L50.6685932,16.4021293 L50.9980228,15.7952852 C51.2927757,15.2577947 52.5584791,14.5122433 54.9165019,14.5122433 L58.8523194,14.5122433 L59.7019011,16.4021293 L61.8171863,16.4021293 L55.5926996,3.24228137 L53.5120913,3.24228137 L54.2229658,4.83741445 Z M55.610038,12.605019 C53.8415209,12.605019 52.7838783,12.9344487 52.3157414,13.3332319 L55.1765779,7.14342205 L58.0027376,12.605019 L55.610038,12.605019 Z M75.3238023,5.1321673 C74.0580989,3.86646388 72.2895817,3.08623574 70.3476806,3.08623574 C66.6372624,3.08623574 63.3776426,5.92973384 63.3776426,9.74418251 C63.3776426,13.6453232 66.4118631,16.6968821 70.3303422,16.6968821 C72.4109506,16.6968821 74.3181749,15.8126236 75.6185551,14.3561977 L74.4568821,12.778403 C73.5206084,14.0267681 72.0295057,14.8069962 70.3476806,14.8069962 C67.6428897,14.8069962 65.2328517,12.7610646 65.2328517,9.96958175 C65.2328517,7.05673004 67.4521673,4.99346008 70.3303422,4.99346008 C71.8041065,4.99346008 73.1738403,5.58296578 74.1101141,6.55391635 L75.3238023,5.1321673 Z M89.5759696,9.84821293 C89.5759696,12.6570342 87.269962,14.8069962 84.4958175,14.8069962 C81.7910266,14.8069962 79.3809886,12.7610646 79.3809886,9.96958175 C79.3809886,7.05673004 81.6003042,4.99346008 84.4784791,4.99346008 C87.2352852,4.99346008 89.5759696,7.00471483 89.5759696,9.84821293 Z M91.4485171,9.95224335 C91.4485171,6.08577947 88.3276046,3.08623574 84.4958175,3.08623574 C80.7853992,3.08623574 77.5257795,5.92973384 77.5257795,9.74418251 C77.5257795,13.6453232 80.56,16.6968821 84.4784791,16.6968821 C88.2235741,16.6968821 91.4485171,13.766692 91.4485171,9.95224335 Z M96.2685932,5.37490494 L100.949962,5.37490494 C102.076958,5.37490494 102.874525,5.79102662 102.874525,7.02205323 C102.874525,8.21840304 102.111635,8.80790875 100.949962,8.80790875 L98.7306464,8.80790875 C97.8810646,8.80790875 97.0488213,8.87726236 96.2685932,9.32806084 L96.2685932,5.37490494 Z M96.2685932,11.2526236 C97.0488213,10.8365019 97.898403,10.7324715 98.7306464,10.7324715 L100.949962,10.7324715 C102.198327,10.7324715 103.516046,11.1139163 103.516046,12.6223574 C103.516046,13.9227376 102.198327,14.5122433 101.140684,14.5122433 L96.2685932,14.5122433 L96.2685932,11.2526236 Z M105.388593,12.8650951 C105.388593,11.0792395 104.504335,9.96958175 103.602738,9.55346008 C104.365627,9.06798479 104.764411,8.11437262 104.764411,7.00471483 C104.764411,4.73338403 103.134601,3.46768061 100.949962,3.46768061 L94.3960456,3.46768061 L94.3960456,16.4021293 L100.949962,16.4021293 C103.099924,16.4021293 105.388593,15.4311787 105.388593,12.8650951 Z M119.692776,9.84821293 C119.692776,12.6570342 117.386768,14.8069962 114.612624,14.8069962 C111.907833,14.8069962 109.497795,12.7610646 109.497795,9.96958175 C109.497795,7.05673004 111.71711,4.99346008 114.595285,4.99346008 C117.352091,4.99346008 119.692776,7.00471483 119.692776,9.84821293 Z M121.565323,9.95224335 C121.565323,6.08577947 118.444411,3.08623574 114.612624,3.08623574 C110.902205,3.08623574 107.642586,5.92973384 107.642586,9.74418251 C107.642586,13.6453232 110.676806,16.6968821 114.595285,16.6968821 C118.34038,16.6968821 121.565323,13.766692 121.565323,9.95224335 Z M133.996958,3.46768061 L135.869506,3.46768061 L135.869506,16.4021293 L133.996958,16.4021293 L133.996958,6.43254753 L126.385399,16.4021293 L124.512852,16.4021293 L124.512852,3.46768061 L126.385399,3.46768061 L126.385399,13.4372624 L133.996958,3.46768061 Z M130.28654,1.30038023 C131.413536,1.30038023 131.621597,0.554828897 131.621597,0 L133.615513,0 C133.494144,1.07498099 132.765932,2.51406844 130.28654,2.51406844 C127.807148,2.51406844 127.078935,1.07498099 126.957567,0 L128.951483,0 C128.951483,0.554828897 129.159544,1.30038023 130.28654,1.30038023 Z M147.208821,14.5122433 C148.942662,12.0155133 150.243042,8.16638783 150.572471,5.37490494 L153.780076,5.37490494 L153.780076,14.5122433 L147.208821,14.5122433 Z M156.796958,18.3960456 L156.796958,14.5122433 L155.669962,14.5122433 L155.669962,3.46768061 L146.46327,3.46768061 L147.260837,5.37490494 L148.682586,5.37490494 C148.09308,8.99863118 146.914068,12.0501901 144.902814,14.5122433 L142.995589,14.5122433 L142.995589,18.3960456 L144.885475,18.3960456 L144.885475,16.4021293 L154.907072,16.4021293 L154.907072,18.3960456 L156.796958,18.3960456 Z M170.754373,9.84821293 C170.754373,12.6570342 168.448365,14.8069962 165.674221,14.8069962 C162.96943,14.8069962 160.559392,12.7610646 160.559392,9.96958175 C160.559392,7.05673004 162.778707,4.99346008 165.656882,4.99346008 C168.413688,4.99346008 170.754373,7.00471483 170.754373,9.84821293 Z M172.62692,9.95224335 C172.62692,6.08577947 169.506008,3.08623574 165.674221,3.08623574 C161.963802,3.08623574 158.704183,5.92973384 158.704183,9.74418251 C158.704183,13.6453232 161.738403,16.6968821 165.656882,16.6968821 C169.401977,16.6968821 172.62692,13.766692 172.62692,9.95224335 Z M186.619011,7.50752852 L182.197719,12.7957414 L177.811103,7.50752852 L177.811103,16.4021293 L175.955894,16.4021293 L175.955894,5.28821293 L174.447452,3.46768061 L176.892167,3.46768061 L182.18038,9.81353612 L187.537947,3.46768061 L189.982662,3.46768061 L188.474221,5.28821293 L188.474221,16.4021293 L186.619011,16.4021293 L186.619011,7.50752852 Z" id="ЧАСОВОЙДОМ"></path>
            <path d="M37.7803802,26.914981 C38.0404563,26.784943 38.3265399,26.741597 38.6039544,26.741597 C38.9853992,26.741597 40.1210646,26.9323194 40.7105703,26.9323194 C40.9793156,26.9323194 41.3087452,26.8889734 41.5861597,26.7676046 L41.5861597,29.7758175 L42.5311027,29.7758175 L42.5311027,23.3085932 L41.5861597,23.3085932 L41.5861597,25.8139924 C41.3087452,25.9353612 40.9793156,25.9787072 40.7105703,25.9787072 C40.1210646,25.9787072 38.9853992,25.7879848 38.6039544,25.7879848 C38.3265399,25.7879848 38.0404563,25.8313308 37.7803802,25.9613688 L37.7803802,23.3085932 L36.8441065,23.3085932 L36.8441065,29.7758175 L37.7803802,29.7758175 L37.7803802,26.914981 Z M46.458251,23.9934601 L43.6580989,29.7758175 L44.6810646,29.7758175 L44.8457795,29.4723954 C44.9931559,29.2036502 45.6260076,28.8308745 46.805019,28.8308745 L48.7729278,28.8308745 L49.1977186,29.7758175 L50.2553612,29.7758175 L47.1431179,23.1958935 L46.1028137,23.1958935 L46.458251,23.9934601 Z M47.1517871,27.8772624 C46.2675285,27.8772624 45.7387072,28.0419772 45.5046388,28.2413688 L46.935057,25.1464639 L48.3481369,27.8772624 L47.1517871,27.8772624 Z M59.1586312,28.8308745 L59.1586312,23.3085932 L58.2136882,23.3085932 L58.2136882,28.8308745 L54.7546768,28.8308745 L54.7546768,23.3085932 L53.818403,23.3085932 L53.818403,29.7758175 L58.9332319,29.7758175 L58.3263878,31.1368821 L59.3753612,31.1368821 L60.4156654,28.8308745 L59.1586312,28.8308745 Z M62.7390114,24.2622053 L65.0796958,24.2622053 C65.6431939,24.2622053 66.0419772,24.4702662 66.0419772,25.0857795 C66.0419772,25.6839544 65.6605323,25.9787072 65.0796958,25.9787072 L63.970038,25.9787072 C63.5452471,25.9787072 63.1291255,26.013384 62.7390114,26.2387833 L62.7390114,24.2622053 Z M62.7390114,27.2010646 C63.1291255,26.9930038 63.5539163,26.9409886 63.970038,26.9409886 L65.0796958,26.9409886 C65.7038783,26.9409886 66.3627376,27.131711 66.3627376,27.8859316 C66.3627376,28.5361217 65.7038783,28.8308745 65.175057,28.8308745 L62.7390114,28.8308745 L62.7390114,27.2010646 Z M67.2990114,28.0073004 C67.2990114,27.1143726 66.8568821,26.5595437 66.4060837,26.3514829 C66.7875285,26.1087452 66.9869202,25.6319392 66.9869202,25.0771103 C66.9869202,23.9414449 66.1720152,23.3085932 65.0796958,23.3085932 L61.8027376,23.3085932 L61.8027376,29.7758175 L65.0796958,29.7758175 C66.1546768,29.7758175 67.2990114,29.2903422 67.2990114,28.0073004 Z M69.8044106,27.1837262 C70.1945247,26.9756654 70.6106464,26.9323194 71.0267681,26.9323194 L72.4398479,26.9323194 L72.4398479,25.970038 L71.0267681,25.970038 C70.6019772,25.970038 70.1945247,25.9960456 69.8044106,26.2214449 L69.8044106,24.2622053 L73.4107985,24.2622053 L73.4107985,23.3085932 L68.8594677,23.3085932 L68.8594677,29.7758175 L73.7922433,29.7758175 L73.7922433,28.8308745 L69.8044106,28.8308745 L69.8044106,27.1837262 Z M80.1207605,24.2622053 L80.1207605,23.3085932 L74.6158175,23.3085932 L74.6158175,24.2622053 L76.9218251,24.2622053 L76.9218251,29.7758175 L77.8407605,29.7758175 L77.8407605,24.2622053 L80.1207605,24.2622053 Z M82.2707224,26.914981 C82.5307985,26.784943 82.8168821,26.741597 83.0942966,26.741597 C83.4757414,26.741597 84.6114068,26.9323194 85.2009125,26.9323194 C85.4696578,26.9323194 85.7990875,26.8889734 86.0765019,26.7676046 L86.0765019,29.7758175 L87.0214449,29.7758175 L87.0214449,23.3085932 L86.0765019,23.3085932 L86.0765019,25.8139924 C85.7990875,25.9353612 85.4696578,25.9787072 85.2009125,25.9787072 C84.6114068,25.9787072 83.4757414,25.7879848 83.0942966,25.7879848 C82.8168821,25.7879848 82.5307985,25.8313308 82.2707224,25.9613688 L82.2707224,23.3085932 L81.3344487,23.3085932 L81.3344487,29.7758175 L82.2707224,29.7758175 L82.2707224,26.914981 Z M94.5203042,26.4988593 C94.5203042,27.90327 93.3673004,28.978251 91.9802281,28.978251 C90.6278327,28.978251 89.4228137,27.9552852 89.4228137,26.5595437 C89.4228137,25.1031179 90.5324715,24.0714829 91.9715589,24.0714829 C93.349962,24.0714829 94.5203042,25.0771103 94.5203042,26.4988593 Z M95.4565779,26.5508745 C95.4565779,24.6176426 93.8961217,23.1178707 91.9802281,23.1178707 C90.125019,23.1178707 88.4952091,24.5396198 88.4952091,26.4468441 C88.4952091,28.3974144 90.0123194,29.9231939 91.9715589,29.9231939 C93.8441065,29.9231939 95.4565779,28.4580989 95.4565779,26.5508745 Z M102.452624,25.3285171 L100.241977,27.9726236 L98.0486692,25.3285171 L98.0486692,29.7758175 L97.1210646,29.7758175 L97.1210646,24.2188593 L96.3668441,23.3085932 L97.5892015,23.3085932 L100.233308,26.4815209 L102.912091,23.3085932 L104.134449,23.3085932 L103.380228,24.2188593 L103.380228,29.7758175 L102.452624,29.7758175 L102.452624,25.3285171 Z" id="НАЦВЕТНОМ"></path>
            <g id="noun_Watch_2934148-Copy" transform="translate(0.000000, 2.167300)">
                <g id="Group">
                    <path d="M14.4890949,0.244793987 C6.62234918,0.244793987 0.285152209,6.58185699 0.285152209,14.4487357 C0.285152209,22.3154814 6.62234918,28.6526784 14.4890949,28.6526784 C22.3558406,28.6526784 28.6930357,22.3154814 28.6930357,14.4487357 C28.6930357,6.58185694 22.3558406,0.244793987 14.4890949,0.244793987 Z M14.4890949,27.5600673 C7.27788959,27.5600673 1.37776331,21.6599429 1.37776331,14.4487357 C1.37776331,7.23752853 7.27788959,1.33740415 14.4890949,1.33740415 C21.7003002,1.33740415 27.6004246,7.23753042 27.6004246,14.4487357 C27.6004246,21.659941 21.7003002,27.5600673 14.4890949,27.5600673 Z" id="Shape"></path>
                    <path d="M15.5379581,14.7328255 C15.559832,14.6453315 15.581706,14.5579706 15.581706,14.4487357 C15.581706,13.9243041 15.2321293,13.5091074 14.7513107,13.3997395 L14.7513107,7.67446809 C14.7513107,7.52148718 14.6420758,7.39037831 14.4890949,7.39037831 C14.336114,7.39037831 14.2268791,7.52148718 14.2268791,7.67446809 L14.2268791,13.3997395 C13.7460605,13.5091074 13.3964838,13.9243041 13.3964838,14.4487358 C13.3964838,15.0605283 13.8771693,15.5413469 14.4890949,15.5413469 C14.7950567,15.5413469 15.0791465,15.410238 15.2976163,15.2135111 L20.4765821,18.1853807 C20.5203281,18.2072528 20.5640761,18.2291268 20.607689,18.2291268 C20.695183,18.2291268 20.8044179,18.1636398 20.8480309,18.0761459 C20.9136528,17.945037 20.8699049,17.7920561 20.7387979,17.7046952 L15.5379581,14.7328255 Z" id="Path"></path>
                    <path d="M14.4890949,1.77447579 C7.49635745,1.77447579 1.81483401,7.45599833 1.81483401,14.4487357 C1.81483401,21.4414731 7.4963575,27.1229947 14.4890949,27.1229947 C21.4818323,27.1229947 27.1633558,21.4414731 27.1633558,14.4487357 C27.1633558,7.45599833 21.4818304,1.77447579 14.4890949,1.77447579 Z M22.7710392,9.55385966 C22.8147834,9.6412206 22.9240183,9.70670754 23.0115141,9.70670754 C23.0551252,9.70670754 23.0988731,9.68496852 23.142621,9.66309454 L24.9781335,8.63597038 C25.9177618,10.2967611 26.4640693,12.1978935 26.4859414,14.18652 L24.3225912,14.18652 C24.1696122,14.18652 24.0603773,14.2957548 24.0603773,14.4487358 C24.0603773,14.6017167 24.1696122,14.7109516 24.3225912,14.7109516 L26.4859414,14.7109516 C26.4640693,16.633958 25.9615098,18.4694686 25.0656256,20.0865132 L23.142621,19.0157742 C23.0115141,18.9502872 22.8366592,18.9939021 22.7710392,19.1251421 C22.7055485,19.2562509 22.7492964,19.4309728 22.8804071,19.4965927 L24.8032786,20.5673299 C23.7981596,22.2281186 22.3995866,23.6484344 20.7387979,24.6755586 L19.5150779,22.818041 C19.449591,22.6869302 19.2747361,22.6651912 19.1436272,22.7525541 C19.0125203,22.818041 18.9906463,22.9928959 19.0780073,23.1240028 L20.3017253,24.9377725 C18.6410696,25.8774046 16.7399372,26.4237082 14.7513107,26.4455841 L14.7513107,24.282234 C14.7513107,24.1292512 14.6420758,24.0200201 14.4890949,24.0200201 C14.336114,24.0200201 14.2268791,24.1292512 14.2268791,24.282234 L14.2268791,26.4455841 C12.2382527,26.4237082 10.3371202,25.8774046 8.67646262,24.9377725 L9.9001826,23.1240028 C9.98754354,22.9928959 9.96566955,22.818041 9.83456068,22.7525541 C9.70345375,22.6651912 9.52859885,22.6869302 9.4631119,22.818041 L8.23939193,24.6755586 C6.64409015,23.6703065 5.26752228,22.3154815 4.28414606,20.7203127 L6.09778362,19.7150625 C6.22889154,19.6495755 6.27263947,19.4747187 6.20715153,19.3436118 C6.1415306,19.212503 5.9666757,19.168757 5.83556783,19.2343769 L4.00005627,20.2613681 C3.06042703,18.6005774 2.51412145,16.6994449 2.49224746,14.7109516 L4.65559578,14.7109516 C4.80857765,14.7109516 4.91781252,14.6017167 4.91781252,14.4487358 C4.91781252,14.2957548 4.80857765,14.18652 4.65559578,14.18652 L2.49224746,14.18652 C2.51412145,12.2635135 3.01668,10.4278699 3.91256231,8.81082528 L5.83556783,9.88156434 C5.87931481,9.90343639 5.92306179,9.90343639 5.96667575,9.90343639 C6.05416972,9.90343639 6.16340459,9.85969035 6.20715158,9.77232946 C6.27263947,9.6412206 6.22889154,9.46636574 6.09778367,9.40087879 L4.17491123,8.33014163 C5.18002837,6.66935095 6.57860135,5.24890408 8.23939198,4.2219139 L9.46311195,6.07929939 C9.50672496,6.16666033 9.59421888,6.21040631 9.68157981,6.21040631 C9.72532774,6.21040631 9.79081469,6.18853232 9.83456073,6.14491937 C9.9656696,6.07929939 9.98754354,5.90444448 9.90018265,5.77333567 L8.67646267,3.95969715 C10.3371203,3.01993483 12.2382527,2.47362931 14.2268792,2.45188934 L14.2268792,4.61523761 C14.2268792,4.76821947 14.3361141,4.87745341 14.489095,4.87745341 C14.6420759,4.87745341 14.7513108,4.76821947 14.7513108,4.61523761 L14.7513108,2.45188934 C16.7399372,2.47362931 18.6410697,3.01993488 20.3017254,3.95969715 L19.0780073,5.77333567 C18.9906464,5.90444453 19.0125204,6.07929939 19.1436273,6.14491937 C19.1873752,6.18853237 19.2528622,6.21040631 19.2966101,6.21040631 C19.383971,6.21040631 19.471465,6.16666028 19.515078,6.07929939 L20.7387979,4.2219139 C22.3340997,5.22703009 23.7106676,6.58185704 24.6940438,8.17716071 L22.8804072,9.18227596 C22.7492964,9.24789783 22.7055485,9.42275268 22.7710392,9.55385966 Z" id="Shape"></path>
                </g>
            </g>
        </g>
    </g>
</svg>