<svg width="95" height="77" viewBox="0 0 95 77" fill="none" xmlns="http://www.w3.org/2000/svg">
<g opacity="0.15" filter="url(#filter0_f)">
<path d="M35.6587 53.2916C41.4884 54.094 56.1664 56.1816 61.8192 59.161C70.0277 63.4875 68.273 68.9566 68.273 68.9566C68.273 68.9566 49.0072 68.3821 34.7121 66.4147C20.4171 64.4472 8.06546 62.2586 8.67379 57.8008C9.28211 53.343 21.3637 51.3242 35.6587 53.2916Z" fill="black"/>
</g>
<path d="M95 26.8345C95 41.6547 68.2794 69.3224 68.2794 69.3224C68.2794 69.3224 41.5588 41.6547 41.5588 26.8345C41.5588 12.0142 53.522 0 68.2794 0C83.0368 0 95 12.0142 95 26.8345Z" fill="#C49F75"/>
<path d="M68.678 13.417H68.2726C68.1232 13.417 68.0023 13.5384 68.0023 13.6884V20.4728C68.0023 20.6229 68.1232 20.7443 68.2726 20.7443H69.0832C69.2325 20.7443 69.3535 20.6229 69.3535 20.4728V14.7919C75.9696 15.1457 81.2441 20.6626 81.2441 27.3933C81.2441 34.3516 75.6068 40.0129 68.678 40.0129C61.7492 40.0129 56.1119 34.3516 56.1119 27.3933C56.1119 24.1129 57.3499 21.0238 59.6035 18.6637C59.7068 18.5556 59.7068 18.3842 59.6014 18.2779L59.028 17.7021C58.9222 17.5962 58.7512 17.5959 58.6479 17.7037C56.1391 20.3207 54.761 23.7504 54.761 27.3933C54.761 35.0998 61.0045 41.3696 68.678 41.3696C76.3515 41.3696 82.595 35.0995 82.595 27.3933C82.595 19.6868 76.3519 13.417 68.678 13.417Z" fill="white"/>
<path d="M67.4221 26.8999C67.3628 27.0533 67.3269 27.2186 67.3269 27.3934C67.3269 28.1429 67.9315 28.7501 68.6778 28.7501C68.8519 28.7501 69.0164 28.7146 69.1689 28.6544L70.7805 30.2725C70.8862 30.3784 71.0573 30.3784 71.1627 30.2725L71.5447 29.889C71.6501 29.7827 71.6501 29.611 71.5447 29.5051L69.9331 27.8866C69.9928 27.7335 70.0286 27.568 70.0286 27.3934C70.0286 26.644 69.424 26.0365 68.6778 26.0365C68.5036 26.0365 68.3391 26.0722 68.1863 26.1324L62.9455 20.869C62.8401 20.7631 62.669 20.7631 62.5639 20.869L62.1816 21.2529C62.0759 21.3588 62.0759 21.5308 62.1816 21.6364L67.4221 26.8999Z" fill="white"/>
<defs>
<filter id="filter0_f" x="0.652222" y="44.5381" width="75.7782" height="32.4183" filterUnits="userSpaceOnUse" color-interpolation-filters="sRGB">
<feFlood flood-opacity="0" result="BackgroundImageFix"/>
<feBlend mode="normal" in="SourceGraphic" in2="BackgroundImageFix" result="shape"/>
<feGaussianBlur stdDeviation="4" result="effect1_foregroundBlur"/>
</filter>
</defs>
</svg>
